<?xml version="1.0" encoding="UTF-8"?>
<svg width="184px" height="58px" viewBox="0 0 184 58" version="1.1" xmlns="http://www.w3.org/2000/svg" xmlns:xlink="http://www.w3.org/1999/xlink">
    <title>app store</title>
    <g id="Page-1" stroke="none" stroke-width="1" fill="none" fill-rule="evenodd">
        <g id="app-store">
            <rect id="Rectangle" fill="#141616" x="0" y="0" width="184" height="58" rx="8"></rect>
            <path d="M81.7558771,31.2892863 C83.34197,31.2892863 84.6396823,31.8660474 85.6490142,33.1637597 C86.9467265,34.3172818 87.5234875,35.9033746 87.5234875,38.0662285 C87.5234875,40.3732727 86.9467265,42.1035558 85.6490142,43.5454584 C84.4954921,44.6989805 83.1977797,45.2757415 81.4674966,45.2757415 C79.8237277,45.2757415 78.5703538,44.7552147 77.8310003,43.5905359 L77.7185499,43.4012681 L77.7185499,50.4665908 L74.6905544,50.4665908 L74.6905544,36.0475649 C74.6905544,34.6056623 74.6905544,33.1637597 74.5463642,31.5776668 L77.1417888,31.5776668 L77.2859791,33.7405207 C78.2953109,32.1544279 79.7372135,31.2892863 81.7558771,31.2892863 Z M97.1842349,31.2892863 C98.7703278,31.2892863 100.06804,31.8660474 101.077372,33.1637597 C102.375084,34.3172818 102.951845,35.9033746 102.951845,38.0662285 C102.951845,40.3732727 102.375084,42.1035558 101.077372,43.5454584 C99.9238498,44.6989805 98.6261375,45.2757415 96.8958544,45.2757415 C95.2520854,45.2757415 93.9987116,44.7552147 93.259358,43.5905359 L93.1469077,43.4012681 L93.1469077,50.4665908 L90.1189122,50.4665908 L90.1189122,36.0475649 C90.1189122,34.6056623 90.1189122,33.1637597 89.9747219,31.5776668 L92.5701466,31.5776668 L92.7143369,33.7405207 C93.7236687,32.1544279 95.1655713,31.2892863 97.1842349,31.2892863 Z M29.8473837,19.7540656 C31.1450961,19.7540656 33.884711,17.8795922 36.6243259,18.1679727 C37.777848,18.312163 40.9500337,18.7447337 43.1128876,21.7727292 C42.9686973,21.9169194 39.2197506,24.0797733 39.2197506,28.5496714 C39.2197506,33.0136841 42.5511401,34.9539169 43.7234102,35.5529409 L43.8789114,35.6311659 C43.902047,35.6426534 43.9237389,35.6533773 43.9439073,35.6633549 L44.0459995,35.714401 C44.0872678,35.735583 44.1133914,35.7503564 44.1222194,35.7591844 C44.1222194,35.9033746 43.4012681,38.354609 41.670985,40.8058434 L41.670985,40.8058434 L41.3804683,41.2377734 L41.3804683,41.2377734 L41.0848249,41.6658582 C39.790744,43.5070076 38.3161583,45.1315512 36.1917551,45.1315512 C33.7405207,45.1315512 33.0195694,43.6896486 30.2799545,43.6896486 C27.5403396,43.6896486 26.675198,44.987361 24.3681539,45.1315512 C22.0611097,45.2757415 20.3308266,42.8245071 18.7447337,40.6616532 C15.7167383,36.1917551 13.4096941,28.1171006 16.5818798,22.6378707 C18.1679727,19.8982558 20.9075876,18.1679727 23.9355831,18.1679727 C26.2426272,18.1679727 28.4054811,19.7540656 29.8473837,19.7540656 Z M126.743238,28.1171006 L126.743238,31.4334766 L130.059614,31.4334766 L130.059614,33.7405207 L126.743238,33.7405207 L126.743238,40.2290824 C126.743238,41.8151753 127.319999,42.6803168 128.473521,42.6803168 C129.050282,42.6803168 129.482853,42.6803168 129.771234,42.5361266 L129.915424,44.8431707 C129.338663,45.1315512 128.617711,45.1315512 127.60838,45.1315512 C126.454858,45.1315512 125.445526,44.8431707 124.868765,44.1222194 C124.147813,43.4012681 123.859433,42.247746 123.859433,40.5174629 L123.859433,33.7405207 L121.840769,33.7405207 L121.840769,31.4334766 L123.859433,31.4334766 L123.859433,28.9822422 L126.743238,28.1171006 Z M115.496398,26.098437 C117.226681,26.098437 118.524393,26.3868175 119.677915,26.9635785 L118.956964,29.4148129 C117.947632,28.8380519 116.79411,28.5496714 115.352208,28.5496714 C114.342876,28.5496714 113.477734,28.8380519 112.900973,29.2706227 C112.468402,29.7031935 112.180022,30.2799545 112.180022,31.0009058 C112.180022,31.7218571 112.468402,32.2986181 113.045163,32.8753792 C113.477734,33.3079499 114.487066,33.7405207 115.784778,34.3172818 C117.370871,34.8940428 118.524393,35.7591844 119.389535,36.6243259 C119.822106,37.3452772 120.254676,38.354609 120.254676,39.6523214 C120.254676,41.2384142 119.677915,42.5361266 118.668584,43.5454584 C117.515062,44.6989805 115.784778,45.1315512 113.621925,45.1315512 C111.603261,45.1315512 110.017168,44.6989805 108.863646,43.9780292 L109.584597,41.5267947 C110.88231,42.247746 112.324212,42.6803168 113.910305,42.6803168 C115.063827,42.6803168 115.928969,42.3919363 116.50573,41.9593655 C117.082491,41.3826045 117.370871,40.8058434 117.370871,39.9407019 C117.370871,39.2197506 117.082491,38.4987993 116.64992,38.0662285 C116.073159,37.4894675 115.208017,37.0568967 114.054495,36.6243259 C110.738119,35.4708038 109.152026,33.5963305 109.152026,31.2892863 C109.152026,29.7031935 109.728787,28.5496714 110.88231,27.5403396 C112.035832,26.5310078 113.477734,26.098437 115.496398,26.098437 Z M162.214042,31.1450961 C164.088515,31.1450961 165.674608,31.8660474 166.53975,33.3079499 C167.549082,34.461472 167.837462,35.9033746 167.837462,37.4894675 C167.837462,38.0662285 167.837462,38.4987993 167.693272,38.7871798 L158.753476,38.7871798 C158.753476,40.0848921 159.186047,41.094224 160.051188,41.8151753 C160.772139,42.3919363 161.781471,42.8245071 162.934993,42.8245071 C164.232706,42.8245071 165.530418,42.6803168 166.53975,42.247746 L166.972321,44.2664097 C165.674608,44.8431707 164.232706,45.1315512 162.502422,45.1315512 C160.483759,45.1315512 158.753476,44.5547902 157.599954,43.2570779 C156.446432,42.1035558 155.869671,40.3732727 155.869671,38.354609 C155.869671,36.3359454 156.446432,34.6056623 157.455763,33.3079499 C158.609285,31.8660474 160.195378,31.1450961 162.214042,31.1450961 Z M138.566839,31.1450961 C140.585503,31.1450961 142.171596,31.8660474 143.325118,33.1637597 C144.33445,34.461472 144.911211,36.0475649 144.911211,38.0662285 C144.911211,40.0848921 144.33445,41.8151753 143.180928,43.1128876 C141.883215,44.4105999 140.297123,45.1315512 138.278459,45.1315512 C136.259795,45.1315512 134.673702,44.4105999 133.52018,43.1128876 C132.366658,41.8151753 131.789897,40.2290824 131.789897,38.2104188 C131.789897,36.1917551 132.366658,34.461472 133.664371,33.1637597 C134.817893,31.8660474 136.548176,31.1450961 138.566839,31.1450961 Z M66.3275194,26.2426272 L72.0951298,44.8431707 L68.9229441,44.8431707 L67.1926609,39.3639408 L61.13667,39.3639408 L59.5505772,44.8431707 L56.5225817,44.8431707 L62.5785726,26.2426272 L66.3275194,26.2426272 Z M154.427768,31.0009058 L154.427425,34.0175571 C154.183446,33.9848431 153.923102,33.884711 153.562626,33.884711 C152.553295,33.884711 151.688153,34.3172818 151.111392,35.0382331 C150.678821,35.7591844 150.390441,36.6243259 150.390441,37.6336577 L150.390441,44.6989805 L147.362445,44.6989805 L147.362445,35.4708038 C147.362445,33.884711 147.362445,32.5869987 147.218255,31.2892863 L149.81368,31.2892863 L149.95787,33.884711 L150.10206,33.884711 C150.390441,33.0195694 150.967202,32.2986181 151.543963,31.7218571 C152.264914,31.2892863 152.985865,31.0009058 153.706817,31.0009058 L154.427768,31.0009058 L154.427768,31.0009058 Z M138.134269,33.4521402 C136.980747,33.4521402 135.971415,34.0289012 135.394654,35.0382331 C134.817893,35.9033746 134.529512,37.0568967 134.529512,38.2104188 C134.529512,39.5081311 134.817893,40.5174629 135.394654,41.3826045 C135.971415,42.3919363 136.980747,42.9686973 138.134269,42.9686973 C139.287791,42.9686973 140.152932,42.3919363 140.873884,41.3826045 C141.450645,40.5174629 141.739025,39.3639408 141.739025,38.2104188 C141.739025,36.9127064 141.450645,35.9033746 140.873884,35.0382331 C140.297123,34.0289012 139.287791,33.4521402 138.134269,33.4521402 Z M81.0349259,33.5963305 C80.3139746,33.5963305 79.5930233,33.884711 79.0162622,34.3172818 C78.4395012,34.7498525 78.0069304,35.4708038 77.8627401,36.1917551 C77.7365737,36.5702546 77.7208029,36.8383583 77.7188315,36.9960664 L77.7185499,39.3639408 C77.7185499,40.3732727 78.0069304,41.094224 78.5836914,41.8151753 C79.1604525,42.5361266 80.025594,42.8245071 80.8907356,42.8245071 C82.0442577,42.8245071 82.9093992,42.3919363 83.4861603,41.5267947 C84.2071116,40.6616532 84.4954921,39.5081311 84.4954921,38.0662285 C84.4954921,36.7685162 84.2071116,35.6149941 83.6303505,34.8940428 C83.0535895,34.0289012 82.1884479,33.5963305 81.0349259,33.5963305 Z M96.4632836,33.5963305 C95.7423323,33.5963305 95.021381,33.884711 94.44462,34.3172818 C93.8678589,34.7498525 93.4352882,35.4708038 93.2910979,36.1917551 C93.1649314,36.5702546 93.1491606,36.8383583 93.1471893,36.9960664 L93.1469077,39.3639408 C93.1469077,40.3732727 93.4352882,41.094224 94.0120492,41.8151753 C94.5888102,42.5361266 95.4539518,42.8245071 96.3190934,42.8245071 C97.4726154,42.8245071 98.337757,42.3919363 98.914518,41.5267947 C99.6354693,40.6616532 99.9238498,39.5081311 99.9238498,38.0662285 C99.9238498,36.7685162 99.6354693,35.6149941 99.0587083,34.8940428 C98.4819473,34.0289012 97.6168057,33.5963305 96.4632836,33.5963305 Z M64.0204752,28.6938616 C63.876285,29.4148129 63.5879044,30.7125253 63.1553337,32.1544279 L61.5692408,37.0568967 L66.6158999,37.0568967 L65.029807,32.1544279 C64.8936274,31.7458888 64.6288335,30.5656648 64.1139566,28.9781627 L64.0204752,28.6938616 Z M162.214042,33.1637597 C161.20471,33.1637597 160.483759,33.5963305 159.906998,34.3172818 C159.474427,34.8940428 159.186047,35.7591844 159.041856,36.6243259 L165.094425,36.6235571 L165.093377,36.5131552 C165.066125,35.7591844 164.9104,35.1103282 164.521086,34.461472 C163.944325,33.5963305 163.223374,33.1637597 162.214042,33.1637597 Z M60.8482895,10.5258889 C62.4343824,10.5258889 63.5879044,10.8142695 64.453046,11.5352208 C65.1739973,12.2561721 65.7507583,13.4096941 65.7507583,14.8515967 C65.7507583,16.4376896 65.3181876,17.7354019 64.3088557,18.6005435 C63.4437142,19.3214948 62.1460019,19.7540656 60.4157187,19.7540656 C59.5505772,19.7540656 58.8296259,19.7540656 58.2528648,19.6098753 L58.2528648,10.6700792 C58.9738161,10.5258889 59.8389577,10.5258889 60.8482895,10.5258889 Z M70.6532272,12.8329331 C71.662559,12.8329331 72.3835103,13.1213136 72.9602713,13.8422649 C73.5370324,14.419026 73.8254129,15.2841675 73.8254129,16.2934993 C73.8254129,17.3028311 73.5370324,18.1679727 72.9602713,18.7447337 C72.3835103,19.465685 71.5183687,19.7540656 70.5090369,19.7540656 C69.4997051,19.7540656 68.7787538,19.465685 68.2019928,18.7447337 C67.6252317,18.1679727 67.3368512,17.3028311 67.3368512,16.2934993 C67.3368512,15.2841675 67.6252317,14.419026 68.2019928,13.8422649 C68.7787538,13.1213136 69.6438953,12.8329331 70.6532272,12.8329331 Z M101.942513,12.8329331 C102.951845,12.8329331 103.672797,13.1213136 104.249558,13.8422649 C104.826319,14.419026 105.114699,15.2841675 105.114699,16.2934993 C105.114699,17.3028311 104.826319,18.1679727 104.249558,18.7447337 C103.672797,19.465685 102.807655,19.7540656 101.798323,19.7540656 C100.788991,19.7540656 100.06804,19.465685 99.4912791,18.7447337 C98.914518,18.1679727 98.6261375,17.3028311 98.6261375,16.2934993 C98.6261375,15.2841675 98.914518,14.419026 99.4912791,13.8422649 C100.06804,13.2655039 100.933182,12.8329331 101.942513,12.8329331 Z M129.915424,12.8329331 C130.924756,12.8329331 131.645707,13.1213136 132.222468,13.8422649 C132.799229,14.419026 133.08761,15.2841675 133.08761,16.2934993 C133.08761,17.3028311 132.799229,18.1679727 132.222468,18.7447337 C131.645707,19.465685 130.780565,19.7540656 129.771234,19.7540656 C128.761902,19.7540656 128.04095,19.465685 127.464189,18.7447337 C126.887428,18.1679727 126.599048,17.3028311 126.599048,16.2934993 C126.599048,15.2841675 126.887428,14.419026 127.464189,13.8422649 C128.04095,13.1213136 128.906092,12.8329331 129.915424,12.8329331 Z M149.381109,11.3910305 L149.381109,12.9771234 L150.967202,12.9771234 L150.967202,14.1306454 L149.236919,14.1306454 L149.236919,17.3028311 C149.236919,18.1679727 149.525299,18.4563532 150.10206,18.4563532 L150.823011,18.4563532 L150.823011,18.4563532 L150.823011,19.6098753 C150.534631,19.7540656 150.10206,19.7540656 149.669489,19.7540656 C149.092728,19.7540656 148.660158,19.6098753 148.371777,19.1773045 C148.083397,18.888924 147.939206,18.1679727 147.939206,17.4470214 L147.939206,14.1306454 L146.929874,14.1306454 L146.929874,12.9771234 L147.939206,12.9771234 L147.939206,11.8236013 L149.381109,11.3910305 Z M163.944325,12.9771234 C164.953657,12.9771234 165.674608,13.2655039 166.107179,13.9864552 C166.395559,14.419026 166.53975,15.1399772 166.53975,16.0051188 L166.53975,16.7260701 L166.53975,16.7260701 L162.214042,16.7260701 C162.214042,17.4470214 162.502422,17.8795922 162.790803,18.1679727 C163.223374,18.4563532 163.655945,18.6005435 164.232706,18.6005435 C164.953657,18.6005435 165.530418,18.4563532 165.962989,18.312163 L166.251369,19.3214948 C165.674608,19.6098753 164.953657,19.7540656 164.088515,19.7540656 C163.079184,19.7540656 162.214042,19.465685 161.637281,18.888924 C161.06052,18.312163 160.772139,17.4470214 160.772139,16.4376896 C160.772139,15.4283578 161.06052,14.5632162 161.637281,13.9864552 C162.214042,13.2655039 162.934993,12.9771234 163.944325,12.9771234 Z M109.728787,12.8329331 C111.459071,12.8329331 112.324212,13.6980747 112.324212,15.572548 L112.324212,18.0237824 C112.180022,18.7447337 112.180022,19.1773045 112.180022,19.6098753 L110.88231,19.6098753 L110.738119,18.888924 C110.305549,19.465685 109.584597,19.7540656 108.863646,19.7540656 C108.286885,19.7540656 107.710124,19.6098753 107.421743,19.1773045 C107.133363,18.7447337 106.844982,18.312163 106.844982,17.8795922 C106.844982,17.0144506 107.133363,16.4376896 107.854314,16.0051188 C108.575265,15.572548 109.440407,15.4283578 110.738119,15.4283578 L110.738119,15.2841675 C110.738119,14.419026 110.305549,13.9864552 109.440407,13.9864552 C108.719456,13.9864552 108.286885,14.1306454 107.710124,14.419026 L107.421743,13.4096941 C107.998504,12.9771234 108.719456,12.8329331 109.728787,12.8329331 Z M120.543057,10.0933182 L120.543057,19.6098753 L120.543057,19.6098753 L119.245345,19.6098753 L119.245345,18.6005435 C118.812774,19.465685 118.091823,19.7540656 117.082491,19.7540656 C116.217349,19.7540656 115.640588,19.465685 115.063827,18.888924 C114.487066,18.312163 114.342876,17.4470214 114.342876,16.4376896 C114.342876,15.4283578 114.631256,14.5632162 115.208017,13.8422649 C115.784778,13.2655039 116.50573,12.9771234 117.226681,12.9771234 C118.025273,12.9771234 118.578145,13.222844 118.998705,13.7142854 L119.101154,13.8422649 L119.101154,10.0933182 L120.543057,10.0933182 Z M138.71103,12.6887428 C139.287791,12.6887428 139.864552,12.8329331 140.297123,13.2655039 C140.873884,13.6980747 141.018074,14.419026 141.018074,15.4283578 L141.018074,19.6098753 L139.576171,19.6098753 L139.576171,15.8609285 C139.576171,14.7074065 139.1436,14.1306454 138.278459,14.1306454 C137.845888,14.1306454 137.557508,14.2748357 137.269127,14.5632162 C136.980747,14.8515967 136.836556,15.2841675 136.836556,15.7167383 L136.836556,19.6098753 L135.394654,19.6098753 L135.394654,12.9771234 L135.394654,12.9771234 L136.692366,12.9771234 L136.692366,13.9864552 C136.836556,13.6980747 137.124937,13.4096941 137.413317,13.1213136 C137.845888,12.8329331 138.278459,12.6887428 138.71103,12.6887428 Z M96.4632836,9.94912791 L96.4632836,19.6098753 L95.021381,19.6098753 L95.021381,9.94912791 L96.4632836,9.94912791 Z M154.427768,9.94912791 L154.427768,13.9864552 C154.860339,13.2655039 155.58129,12.8329331 156.446432,12.8329331 C157.023193,12.8329331 157.599954,12.9771234 157.888334,13.4096941 C158.320905,13.8422649 158.609285,14.7074065 158.609285,15.572548 L158.609285,19.6098753 L157.167383,19.6098753 L157.167383,15.8609285 C157.167383,14.7074065 156.734812,14.1306454 155.869671,14.1306454 C155.148719,14.1306454 154.716148,14.419026 154.427768,15.1399772 L154.427768,19.6098753 L152.985865,19.6098753 L152.985865,9.94912791 L154.427768,9.94912791 Z M76.7092181,12.9771234 L77.4301694,16.1493091 L77.6464548,17.230736 L77.6464548,17.230736 L77.8627401,18.312163 C78.0069304,17.7354019 78.1511207,17.0144506 78.4395012,16.1493091 L79.3046427,12.9771234 L80.4581648,12.9771234 L81.3233064,16.0051188 C81.5636235,16.6059116 81.7038084,17.2067043 81.8273047,17.8074971 L81.9000674,18.1679727 C82.0442577,17.4470214 82.1884479,16.7260701 82.3326382,16.0051188 L83.1977797,12.9771234 L84.9280629,12.9771234 L82.9093992,19.6098753 L81.6116869,19.6098753 L80.7465453,16.7260701 C80.5062282,16.1252774 80.3660433,15.5244846 80.242547,14.9236919 L80.1697843,14.5632162 C80.025594,15.2841675 79.8814038,16.0051188 79.5930233,16.7260701 L78.7278817,19.6098753 L77.4301694,19.6098753 L75.2673155,12.9771234 L76.7092181,12.9771234 Z M90.1189122,12.6887428 C90.6956732,12.6887428 91.2724343,12.8329331 91.7050051,13.2655039 C92.2817661,13.6980747 92.4259564,14.419026 92.4259564,15.4283578 L92.4259564,19.6098753 L90.9840538,19.6098753 L90.9840538,15.8609285 C90.9840538,14.7074065 90.551483,14.1306454 89.6863414,14.1306454 C89.2537706,14.1306454 88.9653901,14.2748357 88.6770096,14.5632162 C88.3886291,14.8515967 88.2444388,15.2841675 88.2444388,15.7167383 L88.2444388,19.6098753 L86.8025362,19.6098753 L86.8025362,12.9771234 L86.8025362,12.9771234 L88.1002486,12.9771234 L88.1002486,13.9864552 C88.2444388,13.6980747 88.5328193,13.4096941 88.8211999,13.1213136 C89.2537706,12.8329331 89.6863414,12.6887428 90.1189122,12.6887428 Z M117.515062,14.1306454 C116.9383,14.1306454 116.50573,14.419026 116.217349,14.8515967 C115.928969,15.2841675 115.784778,15.8609285 115.784778,16.5818798 C115.784778,17.3028311 115.928969,17.7354019 116.217349,18.1679727 C116.50573,18.6005435 116.9383,18.888924 117.515062,18.888924 C117.947632,18.888924 118.380203,18.7447337 118.668584,18.312163 C118.956964,17.7354019 119.101154,17.3028311 119.101154,16.8702604 L119.101154,15.2841675 L119.101154,15.2841675 C118.956964,14.995787 118.812774,14.7074065 118.524393,14.419026 C118.236013,14.1306454 117.947632,14.1306454 117.515062,14.1306454 Z M129.771234,13.9864552 C129.194473,13.9864552 128.761902,14.2748357 128.473521,14.7074065 C128.185141,15.1399772 128.04095,15.7167383 128.04095,16.2934993 C128.04095,16.8702604 128.185141,17.4470214 128.473521,17.8795922 C128.761902,18.4563532 129.194473,18.6005435 129.771234,18.6005435 C130.347995,18.6005435 130.780565,18.312163 131.068946,17.7354019 C131.357326,17.4470214 131.501517,16.8702604 131.501517,16.2934993 C131.501517,15.7167383 131.357326,15.1399772 131.068946,14.7074065 C130.780565,14.1306454 130.347995,13.9864552 129.771234,13.9864552 Z M110.738119,16.2934993 C109.152026,16.2934993 108.286885,16.7260701 108.286885,17.5912117 C108.286885,17.8795922 108.431075,18.1679727 108.575265,18.312163 C108.719456,18.4563532 109.007836,18.6005435 109.296217,18.6005435 C109.584597,18.6005435 109.872978,18.4563532 110.161358,18.312163 C110.449739,18.1679727 110.593929,17.8795922 110.738119,17.5912117 L110.738119,16.2934993 Z M70.6532272,13.9864552 C70.0764661,13.9864552 69.6438953,14.2748357 69.3555148,14.7074065 C69.0671343,15.1399772 68.9229441,15.7167383 68.9229441,16.2934993 C68.9229441,16.8702604 69.0671343,17.4470214 69.3555148,17.8795922 C69.6438953,18.4563532 70.0764661,18.6005435 70.6532272,18.6005435 C71.2299882,18.6005435 71.662559,18.312163 71.9509395,17.7354019 C72.23932,17.4470214 72.3835103,16.8702604 72.3835103,16.2934993 C72.3835103,15.7167383 72.23932,15.1399772 71.9509395,14.7074065 C71.662559,14.1306454 71.2299882,13.9864552 70.6532272,13.9864552 Z M101.942513,13.9864552 C101.365752,13.9864552 100.933182,14.2748357 100.644801,14.7074065 C100.356421,15.1399772 100.21223,15.7167383 100.21223,16.2934993 C100.21223,16.8702604 100.356421,17.4470214 100.644801,17.8795922 C100.933182,18.4563532 101.365752,18.6005435 101.942513,18.6005435 C102.519275,18.6005435 102.951845,18.312163 103.240226,17.7354019 C103.528606,17.4470214 103.672797,16.8702604 103.672797,16.2934993 C103.672797,15.7167383 103.528606,15.1399772 103.240226,14.7074065 C102.951845,14.1306454 102.519275,13.9864552 101.942513,13.9864552 Z M60.8482895,11.5352208 C60.4157187,11.5352208 59.983148,11.5352208 59.6947674,11.679411 L59.6947674,18.4563532 L60.7040993,18.4563532 L60.7040993,18.4563532 C61.8576213,18.4563532 62.7227629,18.1679727 63.2995239,17.5912117 C63.876285,17.0144506 64.1646655,16.0051188 64.1646655,14.8515967 C64.1646655,13.8422649 63.876285,12.9771234 63.2995239,12.4003623 C62.7227629,11.8236013 61.8576213,11.5352208 60.8482895,11.5352208 Z M36.6243259,9.51655713 C36.7685162,11.679411 35.9033746,13.6980747 34.7498525,15.2841675 C33.4521402,16.7260701 31.4334766,17.8795922 29.5590032,17.7354019 C29.2706227,15.7167383 30.2799545,13.5538844 31.4334766,12.2561721 C32.5869987,10.6700792 34.8940428,9.66074739 36.6243259,9.51655713 Z M163.800135,13.8422649 C163.367564,13.8422649 162.934993,13.9864552 162.646613,14.419026 C162.358232,14.7074065 162.214042,15.1399772 162.214042,15.572548 L165.242037,15.572548 C165.242037,15.1399772 165.097847,14.7074065 164.953657,14.419026 C164.665276,13.9864552 164.376896,13.8422649 163.800135,13.8422649 Z" id="Combined-Shape" fill="#FFFFFF" fill-rule="nonzero"></path>
        </g>
    </g>
</svg>