<?xml version="1.0" encoding="UTF-8"?>
<svg width="184px" height="58px" viewBox="0 0 184 58" version="1.1" xmlns="http://www.w3.org/2000/svg" xmlns:xlink="http://www.w3.org/1999/xlink">
    <title>google</title>
    <defs>
        <linearGradient x1="32.0715648%" y1="-6.0957265%" x2="54.461911%" y2="92.1559829%" id="linearGradient-1">
            <stop stop-color="#006884" offset="0%"></stop>
            <stop stop-color="#8AD1D0" offset="100%"></stop>
        </linearGradient>
        <linearGradient x1="-7.52792208%" y1="30.2358998%" x2="91.537013%" y2="70.9239374%" id="linearGradient-2">
            <stop stop-color="#24BBB6" offset="0%"></stop>
            <stop stop-color="#DBE692" offset="100%"></stop>
        </linearGradient>
        <linearGradient x1="49.9404255%" y1="105.754795%" x2="49.9404255%" y2="-3.12739726%" id="linearGradient-3">
            <stop stop-color="#FCC072" offset="0%"></stop>
            <stop stop-color="#F58A5B" offset="100%"></stop>
        </linearGradient>
        <linearGradient x1="11.1493421%" y1="89.5089855%" x2="90.4368421%" y2="27.9281683%" id="linearGradient-4">
            <stop stop-color="#712B8F" offset="0%"></stop>
            <stop stop-color="#EA1D27" offset="100%"></stop>
        </linearGradient>
    </defs>
    <g id="Page-1" stroke="none" stroke-width="1" fill="none" fill-rule="evenodd">
        <g id="google">
            <rect id="Rectangle" fill="#141616" x="0" y="0" width="184" height="58" rx="8"></rect>
            <path d="M13.7713178,27.8255814 L13.7713178,12.7674419 C13.7713178,11.9069767 14.4883721,11.1899225 15.2054264,11.1899225 C15.9224806,11.1899225 16.2093023,11.3333333 16.6395349,11.620155 L44.3178295,26.8217054 C44.8914729,27.1085271 45.1782946,27.5387597 45.1782946,27.9689922 C45.1782946,28.3992248 44.8914729,28.8294574 44.3178295,29.1162791 L16.6395349,44.3178295 C16.3527132,44.4612403 15.9224806,44.748062 15.2054264,44.748062 C14.4883721,44.748062 13.7713178,44.0310078 13.7713178,43.1705426 L13.7713178,27.8255814 Z" id="Path" fill="url(#linearGradient-1)"></path>
            <path d="M31.6976744,27.9689922 L14.9186047,11.1899225 C15.0620155,11.1899225 15.0620155,11.1899225 15.2054264,11.1899225 C15.9224806,11.1899225 16.2093023,11.3333333 16.6395349,11.620155 L37.003876,22.8062016 L31.6976744,27.9689922 Z" id="Path" fill="url(#linearGradient-2)"></path>
            <path d="M36.8604651,32.9883721 L31.6976744,27.8255814 L37.003876,22.5193798 L44.3178295,26.5348837 C44.8914729,26.8217054 45.1782946,27.251938 45.1782946,27.6821705 C45.1782946,28.1124031 44.8914729,28.5426357 44.3178295,28.8294574 L36.8604651,32.9883721 Z" id="Path" fill="url(#linearGradient-3)"></path>
            <path d="M15.0620155,44.4612403 L15.0620155,44.4612403 L31.6976744,27.8255814 L36.8604651,32.9883721 L16.6395349,44.0310078 C16.2093023,44.3178295 15.9224806,44.4612403 15.0620155,44.4612403 C15.2054264,44.4612403 15.2054264,44.4612403 15.0620155,44.4612403 Z" id="Path" fill="url(#linearGradient-4)"></path>
            <path d="M101.682171,48.3333333 C100.965116,47.7596899 100.391473,46.755814 100.104651,46.1821705 L102.399225,45.1782946 C102.542636,45.4651163 102.829457,45.8953488 103.116279,46.3255814 C103.689922,46.8992248 104.550388,47.4728682 105.410853,47.4728682 C106.271318,47.4728682 107.275194,47.0426357 107.848837,46.3255814 C108.27907,45.6085271 108.565891,44.8914729 108.565891,43.8875969 L108.565891,43.0271318 C106.844961,45.1782946 103.25969,44.8914729 101.251938,42.5968992 C99.1007752,40.3023256 99.1007752,36.4302326 101.251938,34.1356589 C103.403101,31.9844961 106.55814,31.6976744 108.422481,33.7054264 C108.422481,33.7054264 108.422481,33.7054264 108.422481,33.7054264 L108.422481,32.7015504 L110.860465,32.7015504 L110.860465,43.4573643 C110.860465,46.1821705 109.856589,47.7596899 108.565891,48.7635659 C107.705426,49.4806202 106.414729,49.7674419 105.267442,49.7674419 C103.976744,49.624031 102.686047,49.1937984 101.682171,48.3333333 L101.682171,48.3333333 Z M161.771318,48.9069767 L161.771318,48.9069767 L164.209302,43.1705426 L159.906977,33.2751938 L162.344961,33.2751938 L165.356589,40.3023256 L168.368217,33.2751938 L170.806202,33.2751938 L164.209302,48.9069767 L161.771318,48.9069767 L161.771318,48.9069767 Z M150.155039,43.4573643 L150.155039,43.4573643 C149.437984,42.7403101 149.151163,41.7364341 149.151163,40.7325581 C149.151163,39.872093 149.437984,39.0116279 150.011628,38.4379845 C151.015504,37.4341085 152.449612,37.003876 154.027132,37.003876 C155.031008,37.003876 155.891473,37.1472868 156.608527,37.5775194 C156.608527,35.8565891 155.174419,35.1395349 154.027132,35.1395349 C153.023256,35.1395349 152.01938,35.7131783 151.589147,36.7170543 L149.437984,35.8565891 C149.868217,34.8527132 151.015504,32.9883721 153.883721,32.9883721 C155.317829,32.9883721 156.751938,33.4186047 157.612403,34.4224806 C158.472868,35.4263566 158.75969,36.5736434 158.75969,38.1511628 L158.75969,44.1744186 L156.321705,44.1744186 L156.321705,43.1705426 C156.034884,43.6007752 155.46124,43.8875969 155.031008,44.1744186 C154.457364,44.4612403 153.74031,44.6046512 153.023256,44.6046512 C152.162791,44.4612403 150.872093,44.1744186 150.155039,43.4573643 L150.155039,43.4573643 Z M73.7170543,38.2945736 L73.7170543,38.2945736 C73.7170543,35.4263566 75.8682171,32.2713178 79.7403101,32.2713178 C83.4689922,32.2713178 85.7635659,35.4263566 85.7635659,38.2945736 C85.7635659,41.1627907 83.6124031,44.3178295 79.7403101,44.3178295 C75.8682171,44.3178295 73.7170543,41.1627907 73.7170543,38.2945736 L73.7170543,38.2945736 Z M86.624031,38.2945736 L86.624031,38.2945736 C86.624031,35.4263566 88.7751938,32.2713178 92.6472868,32.2713178 C96.375969,32.2713178 98.6705426,35.4263566 98.6705426,38.2945736 C98.6705426,41.1627907 96.5193798,44.3178295 92.6472868,44.3178295 C88.9186047,44.3178295 86.624031,41.1627907 86.624031,38.2945736 L86.624031,38.2945736 Z M57.5116279,41.4496124 L57.5116279,41.4496124 C53.9263566,37.8643411 54.0697674,31.9844961 57.6550388,28.255814 C59.5193798,26.3914729 61.8139535,25.5310078 64.251938,25.5310078 C66.5465116,25.5310078 68.8410853,26.3914729 70.5620155,28.1124031 L68.8410853,29.9767442 C66.2596899,27.3953488 62.1007752,27.5387597 59.6627907,30.120155 C57.0813953,32.8449612 57.0813953,37.003876 59.6627907,39.7286822 C62.244186,42.4534884 66.5465116,42.5968992 69.127907,39.872093 C69.9883721,39.0116279 70.2751938,37.8643411 70.4186047,36.7170543 L64.3953488,36.7170543 L64.3953488,34.1356589 L72.8565891,34.1356589 C73,34.7093023 73,35.4263566 73,36.1434109 C73,38.2945736 72.1395349,40.4457364 70.7054264,41.879845 C69.127907,43.4573643 66.8333333,44.3178295 64.5387597,44.3178295 C61.9573643,44.1744186 59.375969,43.3139535 57.5116279,41.4496124 L57.5116279,41.4496124 Z M118.174419,42.4534884 L118.174419,42.4534884 C116.023256,40.1589147 116.023256,36.2868217 118.174419,33.8488372 C120.325581,31.5542636 123.910853,31.5542636 125.918605,33.8488372 C126.635659,34.5658915 127.065891,35.5697674 127.496124,36.5736434 L119.608527,39.872093 C120.03876,40.875969 121.042636,41.7364341 122.476744,41.7364341 C123.767442,41.7364341 124.627907,41.3062016 125.488372,40.0155039 L127.639535,41.4496124 L127.639535,41.4496124 C127.352713,41.7364341 127.065891,42.0232558 126.922481,42.3100775 C124.484496,44.748062 120.325581,44.748062 118.174419,42.4534884 L118.174419,42.4534884 Z M133.089147,44.1744186 L133.089147,44.1744186 L133.089147,28.255814 L138.251938,28.255814 C141.263566,28.255814 143.70155,30.4069767 143.70155,32.9883721 C143.70155,35.5697674 141.550388,37.7209302 138.825581,37.7209302 L135.670543,37.7209302 L135.670543,44.0310078 L133.089147,44.0310078 L133.089147,44.1744186 Z M145.135659,44.1744186 L145.135659,44.1744186 L145.135659,28.255814 L147.573643,28.255814 L147.573643,44.1744186 L145.135659,44.1744186 L145.135659,44.1744186 Z M112.724806,43.8875969 L112.724806,43.8875969 L112.724806,26.1046512 L115.306202,26.1046512 L115.306202,43.8875969 L112.724806,43.8875969 L112.724806,43.8875969 Z M156.465116,39.4418605 L156.465116,39.4418605 C155.891473,39.0116279 155.031008,38.8682171 154.170543,38.8682171 C152.449612,38.8682171 151.445736,39.7286822 151.445736,40.7325581 C151.445736,41.7364341 152.449612,42.3100775 153.453488,42.3100775 C154.887597,42.3100775 156.465116,41.1627907 156.465116,39.4418605 L156.465116,39.4418605 Z M83.0387597,38.2945736 L83.0387597,38.2945736 C83.0387597,36.5736434 81.8914729,34.7093023 79.7403101,34.7093023 C77.5891473,34.7093023 76.4418605,36.5736434 76.4418605,38.2945736 C76.4418605,40.0155039 77.5891473,41.879845 79.7403101,41.879845 C81.748062,41.879845 83.0387597,40.0155039 83.0387597,38.2945736 L83.0387597,38.2945736 Z M95.9457364,38.2945736 L95.9457364,38.2945736 C95.9457364,36.5736434 94.7984496,34.7093023 92.6472868,34.7093023 C90.496124,34.7093023 89.3488372,36.5736434 89.3488372,38.2945736 C89.3488372,40.0155039 90.496124,41.879845 92.6472868,41.879845 C94.7984496,41.879845 95.9457364,40.0155039 95.9457364,38.2945736 L95.9457364,38.2945736 Z M108.709302,39.2984496 L108.709302,39.2984496 C108.709302,39.1550388 108.709302,39.0116279 108.852713,38.8682171 C108.852713,38.8682171 108.852713,38.8682171 108.852713,38.8682171 C108.852713,38.7248062 108.852713,38.4379845 108.852713,38.2945736 C108.852713,38.1511628 108.852713,37.8643411 108.852713,37.7209302 C108.852713,37.7209302 108.852713,37.5775194 108.852713,37.5775194 C108.852713,37.4341085 108.709302,37.1472868 108.709302,37.003876 C108.27907,35.5697674 106.988372,34.5658915 105.697674,34.5658915 C103.976744,34.5658915 102.542636,36.2868217 102.542636,38.1511628 C102.542636,40.1589147 103.976744,41.7364341 105.841085,41.7364341 C106.988372,41.879845 108.135659,40.875969 108.709302,39.2984496 L108.709302,39.2984496 Z M119.178295,38.0077519 L119.178295,38.0077519 L124.484496,35.7131783 C123.910853,34.7093023 123.050388,34.4224806 122.333333,34.4224806 C120.182171,34.5658915 118.891473,36.8604651 119.178295,38.0077519 L119.178295,38.0077519 Z M141.120155,33.1317829 L141.120155,33.1317829 C141.120155,31.6976744 139.972868,30.6937984 138.395349,30.6937984 L135.527132,30.6937984 L135.527132,35.7131783 L138.53876,35.7131783 C139.972868,35.7131783 141.120155,34.5658915 141.120155,33.1317829 Z" id="Shape" fill="#FFFFFF"></path>
            <path d="M59.6627907,10.0426357 C61.2403101,10.0426357 62.244186,10.7596899 62.9612403,11.7635659 L61.8139535,12.4806202 C61.3837209,11.9069767 60.6666667,11.4767442 59.6627907,11.4767442 C58.0852713,11.4767442 56.9379845,12.624031 56.9379845,14.3449612 C56.9379845,16.0658915 58.0852713,17.2131783 59.6627907,17.2131783 C60.5232558,17.2131783 61.2403101,16.7829457 61.5271318,16.496124 L61.5271318,15.2054264 L59.2325581,15.2054264 L59.2325581,13.9147287 L63.1046512,13.9147287 L63.1046512,16.9263566 C62.3875969,17.7868217 61.2403101,18.3604651 59.8062016,18.3604651 C57.3682171,18.3604651 55.503876,16.6395349 55.503876,14.2015504 C55.503876,11.620155 57.3682171,10.0426357 59.6627907,10.0426357 Z M70.2751938,10.1860465 L70.2751938,11.4767442 L66.1162791,11.4767442 L66.1162791,13.4844961 L70.1317829,13.4844961 L70.1317829,14.7751938 L66.1162791,14.7751938 L66.1162791,17.0697674 L70.2751938,17.0697674 L70.2751938,18.3604651 L64.8255814,18.2170543 L64.8255814,10.1860465 L70.2751938,10.1860465 Z M100.965116,10.0426357 C103.403101,10.0426357 105.124031,11.7635659 105.124031,14.2015504 C105.124031,16.6395349 103.403101,18.3604651 100.965116,18.3604651 C98.5271318,18.3604651 96.8062016,16.496124 96.8062016,14.2015504 C96.8062016,11.7635659 98.5271318,10.0426357 100.965116,10.0426357 Z M78.1627907,10.1860465 L78.1627907,11.4767442 L75.7248062,11.4767442 L75.7248062,18.2170543 L74.2906977,18.2170543 L74.2906977,11.4767442 L71.8527132,11.4767442 L71.8527132,10.1860465 L78.1627907,10.1860465 Z M84.4728682,10.1860465 L84.4728682,18.2170543 L83.0387597,18.2170543 L83.0387597,18.2170543 L83.0387597,10.1860465 L84.4728682,10.1860465 Z M92.2170543,10.1860465 L92.2170543,11.4767442 L89.7790698,11.4767442 L89.7790698,18.2170543 L88.3449612,18.2170543 L88.3449612,11.4767442 L85.9069767,11.4767442 L85.9069767,10.1860465 L92.2170543,10.1860465 Z M108.135659,10.1860465 L112.294574,15.7790698 L112.294574,10.1860465 L113.728682,10.1860465 L113.728682,18.2170543 L112.294574,18.2170543 L108.135659,12.4806202 L108.135659,18.2170543 L106.70155,18.2170543 L106.70155,10.1860465 L108.135659,10.1860465 Z M100.821705,11.3333333 C99.244186,11.3333333 98.0968992,12.624031 98.0968992,14.2015504 C98.0968992,15.9224806 99.1007752,17.0697674 100.821705,17.0697674 C102.542636,17.0697674 103.546512,15.7790698 103.546512,14.2015504 C103.546512,12.4806202 102.542636,11.3333333 100.821705,11.3333333 Z" id="Combined-Shape" fill="#FFFFFF"></path>
        </g>
    </g>
</svg>