<svg width="11" height="8" viewBox="0 0 11 8" fill="none" xmlns="http://www.w3.org/2000/svg">
<path fill-rule="evenodd" clip-rule="evenodd" d="M5.5 0C3 0 0.865007 1.65865 0 4C0.865007 6.34132 3 8 5.5 8C8.00249 8 10.135 6.34132 11 4C10.135 1.65865 8.00249 0 5.5 0ZM5.5 6.66665C4.12 6.66665 3 5.47197 3 3.99997C3 2.52798 4.12 1.33333 5.5 1.33333C6.88 1.33333 8 2.528 8 4C8 5.472 6.88 6.66665 5.5 6.66665ZM4 4C4 3.11733 4.67249 2.4 5.5 2.4C6.32748 2.4 7 3.11733 7 4C7 4.88268 6.32751 5.6 5.5 5.6C4.67249 5.6 4 4.88268 4 4Z" fill="#FAFAFA"/>
</svg>
