<svg width="8" height="8" viewBox="0 0 8 8" fill="none" xmlns="http://www.w3.org/2000/svg">
<path fill-rule="evenodd" clip-rule="evenodd" d="M7.75991 5.43873C7.92856 5.22961 8.00945 5.00544 7.99912 4.77457C7.9888 4.52028 7.87177 4.3212 7.77539 4.19908C7.88726 3.92806 7.93028 3.50146 7.55683 3.17022C7.28319 2.92765 6.81853 2.8189 6.17488 2.84902C5.72327 2.86905 5.34533 2.9507 5.32827 2.95439L5.32816 2.95441H5.32644C5.24039 2.96947 5.14918 2.98787 5.05624 3.00795C5.04936 2.90088 5.06829 2.63488 5.27137 2.03597C5.5123 1.3233 5.49854 0.777917 5.22662 0.413216C4.94094 0.0301129 4.48488 0 4.35064 0C4.22157 0 4.10282 0.0518611 4.01849 0.147219C3.82746 0.363028 3.84984 0.761188 3.87393 0.945211C3.64676 1.53743 3.01 2.98954 2.47133 3.39272C2.46101 3.39941 2.4524 3.40778 2.4438 3.41614L2.44379 3.41614C2.28546 3.57842 2.17876 3.75408 2.10648 3.90799C2.00494 3.85445 1.88964 3.82434 1.76573 3.82434H0.715928C0.320103 3.82434 0 4.13718 0 4.52028V7.23881C0 7.62359 0.321824 7.93476 0.715928 7.93476H1.76573C1.91889 7.93476 2.06174 7.88791 2.17876 7.80761L2.58319 7.85445C2.64515 7.86282 3.74658 7.99833 4.87726 7.97658C5.08206 7.99164 5.27481 8 5.45379 8C5.76185 8 6.03032 7.97658 6.25405 7.92974C6.78067 7.821 7.14035 7.60351 7.32278 7.28398C7.46218 7.03973 7.46218 6.79716 7.4398 6.64325C7.78228 6.34212 7.84251 6.0092 7.83047 5.77499C7.82358 5.63948 7.7926 5.52405 7.75991 5.43873Z" fill="white"/>
</svg>
