<svg xmlns="http://www.w3.org/2000/svg" width="24" height="24" viewBox="0 0 24 24">
    <g fill="none" fill-rule="evenodd">
        <path fill="#2DBD58" stroke="#2DBD58" stroke-width=".5" d="M16.846 3H7.154C6.518 3 6 3.509 6 4.134V20.32c0 .247.136.474.355.594.105.057.221.086.337.086.127 0 .253-.034.364-.101l4.945-3 4.945 2.978c.214.129.481.134.7.014.219-.12.354-.348.354-.594V4.134C18 3.508 17.482 3 16.846 3zm-.23 16.082l-4.254-2.561c-.223-.134-.503-.134-.726.001l-4.251 2.579V4.36h9.23v14.721z"/>
    </g>
</svg>
