<svg xmlns="http://www.w3.org/2000/svg" width="80" height="72" viewBox="0 0 80 72">
    <path fill="#2DBD58" d="M38.293 30.512c.98-.969 2.564-.967 3.54.004L52.448 41.05l.062.061c.96.987.933 2.559-.062 3.511-.994.953-2.578.926-3.54-.061l-6.344-6.298v31.254c0 1.371-1.12 2.483-2.503 2.483-1.382 0-2.503-1.112-2.503-2.483V38.263l-6.345 6.298-.061.061c-.995.952-2.58.925-3.54-.061-.96-.987-.932-2.558.062-3.511l10.615-10.534zM35.168.484c13.557-2.68 26.738 6.049 29.44 19.499C73.354 21.045 79.944 28.386 80 37.128c.06 9.6-7.736 17.43-17.412 17.49H50.073c-1.383 0-2.503-1.112-2.503-2.483 0-1.372 1.12-2.484 2.503-2.484h12.514c6.913 0 12.516-5.558 12.516-12.415 0-6.858-5.603-12.416-12.516-12.416-1.307.008-2.425-.93-2.635-2.21-1.068-9.163-8.354-16.39-17.59-17.451-10.985-1.26-20.921 6.552-22.192 17.451-.14 1.258-1.212 2.21-2.488 2.21-6.912-.04-12.548 5.486-12.589 12.343-.04 6.856 5.53 12.448 12.442 12.488h12.514c1.383 0 2.503 1.112 2.503 2.484 0 1.371-1.12 2.483-2.503 2.483H17.535C8.629 54.624 1.136 48.002.117 39.225c-1.107-9.537 5.788-18.158 15.4-19.257C17.499 10.132 25.253 2.444 35.168.484z"/>
</svg>
