<svg xmlns="http://www.w3.org/2000/svg" width="16" height="10" viewBox="0 0 16 10">
    <g fill="none" fill-rule="evenodd">
        <g fill="#FFFFFF">
            <path d="M864.43 1049.333c.192 0 .348.156.348.349v.97c0 .192-.156.348-.349.348h-2.858c-.193 0-.349-.156-.349-.349v-.97c0-.192.156-.348.349-.348zm3.555-4.166c.192 0 .348.156.348.348v.97c0 .192-.156.348-.348.348h-9.97c-.192 0-.348-.156-.348-.348v-.97c0-.192.156-.348.348-.348zm2.666-4.167c.193 0 .349.156.349.349v.97c0 .192-.156.348-.349.348H855.35c-.193 0-.349-.156-.349-.349v-.97c0-.192.156-.348.349-.348z" transform="translate(-855 -1041)"/>
        </g>
    </g>
</svg>
