<svg xmlns="http://www.w3.org/2000/svg" width="46" height="46" viewBox="0 0 46 46">
    <g fill="none" fill-rule="evenodd">
        <rect width="45" height="45" x=".5" y=".5" fill="#FFF" stroke="#2B3331" stroke-opacity=".1" rx="8"/>
        <g fill-rule="nonzero">
            <path fill="#FBBD00" d="M4.688 10c0-.99.273-1.92.747-2.714V3.915H2.063C.725 5.652 0 7.77 0 10s.725 4.348 2.063 6.085h3.372v-3.371c-.474-.795-.747-1.723-.747-2.714z" transform="translate(13 13)"/>
            <path fill="#0F9D58" d="M10 15.313l-2.344 2.343L10 20c2.23 0 4.348-.725 6.085-2.063v-3.368h-3.367c-.802.476-1.734.743-2.718.743z" transform="translate(13 13)"/>
            <path fill="#31AA52" d="M5.435 12.714l-3.372 3.371c.265.344.554.674.866.986C4.818 18.96 7.329 20 10 20v-4.688c-1.938 0-3.637-1.043-4.565-2.598z" transform="translate(13 13)"/>
            <path fill="#3C79E6" d="M20 10c0-.608-.055-1.218-.164-1.812l-.088-.48H10v4.687h4.744c-.46.917-1.169 1.665-2.027 2.174l3.368 3.368c.344-.265.674-.554.986-.866C18.96 15.182 20 12.671 20 10z" transform="translate(13 13)"/>
            <path fill="#CF2D48" d="M13.757 6.243l.414.415 3.314-3.315-.414-.414C15.182 1.04 12.671 0 10 0L7.656 2.344 10 4.688c1.419 0 2.753.552 3.757 1.555z" transform="translate(13 13)"/>
            <path fill="#EB4132" d="M10 4.688V0C7.329 0 4.818 1.04 2.929 2.929c-.312.312-.6.642-.866.986l3.372 3.371C6.363 5.731 8.062 4.688 10 4.688z" transform="translate(13 13)"/>
        </g>
    </g>
</svg>
