<svg xmlns="http://www.w3.org/2000/svg" width="46" height="46" viewBox="0 0 46 46">
    <defs>
        <linearGradient id="i13zc2tqya" x1="6.714%" x2="93.608%" y1="93.485%" y2="6.619%">
            <stop offset="0%" stop-color="#FD5"/>
            <stop offset="50%" stop-color="#FF543E"/>
            <stop offset="100%" stop-color="#C837AB"/>
        </linearGradient>
    </defs>
    <g fill="none">
        <rect width="46" height="46" fill="url(#i13zc2tqya)" rx="8"/>
        <path fill="#FFF" d="M27.19 13c3.204 0 5.81 2.606 5.81 5.81v8.38c0 3.204-2.606 5.81-5.81 5.81h-8.38C15.606 33 13 30.394 13 27.19v-8.38c0-3.204 2.606-5.81 5.81-5.81zm0 1.563h-8.38c-2.342 0-4.247 1.905-4.247 4.247v8.38c0 2.342 1.905 4.247 4.247 4.247h8.38c2.342 0 4.247-1.905 4.247-4.247v-8.38c0-2.342-1.905-4.247-4.247-4.247zM23 17.608c2.972 0 5.39 2.419 5.39 5.391s-2.418 5.39-5.39 5.39c-2.972 0-5.39-2.418-5.39-5.39 0-2.972 2.418-5.39 5.39-5.39zm0 1.563c-2.11 0-3.828 1.717-3.828 3.828 0 2.11 1.717 3.828 3.828 3.828 2.11 0 3.828-1.717 3.828-3.828 0-2.11-1.717-3.828-3.828-3.828zm5.469-2.422c.431 0 .781.35.781.781 0 .432-.35.782-.781.782-.432 0-.782-.35-.782-.782 0-.431.35-.781.782-.781z"/>
    </g>
</svg>
