<svg width="24" height="20" viewBox="0 0 24 20" fill="none" xmlns="http://www.w3.org/2000/svg">
<path fill-rule="evenodd" clip-rule="evenodd" d="M21.75 20H2.25C1.00726 20 0 18.9667 0 17.6923V2.30769C0 1.03309 1.00726 2.73542e-06 2.25 2.73542e-06H8.70007C9.08716 -0.000748466 9.45959 0.153248 9.73792 0.429314L12.2999 2.94847C12.338 2.98753 12.3721 3.03054 12.4012 3.07692H21.75C22.9927 3.07692 24 4.1102 24 5.38462V17.6923C24 18.9667 22.9926 20 21.75 20ZM2.25 1.53846C1.83582 1.53846 1.5 1.88289 1.5 2.30769V17.6923C1.5 18.1171 1.83582 18.4615 2.25 18.4615H21.75C22.1642 18.4615 22.5 18.1171 22.5 17.6923V5.38462C22.5 4.95981 22.1642 4.61539 21.75 4.61539H12.4012C11.9335 4.61539 11.4924 4.39153 11.2088 4.00992L8.70007 1.53846H2.25ZM15.2184 11.4702C15.3591 11.3773 15.3591 11.1708 15.2184 11.0779L10.1614 7.74055C10.0051 7.63742 9.79688 7.74949 9.79688 7.93672V14.6113C9.79688 14.7986 10.0051 14.9106 10.1614 14.8075L15.2184 11.4702Z" fill="#2B3331"/>
</svg>
