<svg xmlns="http://www.w3.org/2000/svg" width="24" height="24" viewBox="0 0 24 24">
    <g fill="none" fill-rule="evenodd">
        <path d="M0 0H24V24H0z"/>
        <path fill="#2dbd58" d="M10.448 2c4.659 0 8.449 3.79 8.449 8.448 0 2.064-.744 3.957-1.978 5.426l4.865 4.865c.288.288.288.756 0 1.045-.145.144-.334.216-.523.216-.19 0-.378-.072-.522-.216l-4.865-4.865c-1.469 1.234-3.362 1.978-5.426 1.978C5.79 18.897 2 15.107 2 10.448 2 5.79 5.79 2 10.448 2zm0 1.478c-3.843 0-6.97 3.127-6.97 6.97 0 3.844 3.127 6.97 6.97 6.97 1.892 0 3.61-.756 4.866-1.983l.055-.066c.02-.02.042-.039.063-.056 1.23-1.256 1.987-2.973 1.987-4.865 0-3.843-3.127-6.97-6.97-6.97z"/>
    </g>
</svg>
