<svg xmlns="http://www.w3.org/2000/svg" width="46" height="46" viewBox="0 0 46 46">
    <g fill="none" fill-rule="evenodd">
        <rect width="46" height="46" fill="#1DA1F2" rx="8"/>
        <path fill="#FFF" fill-rule="nonzero" d="M20.461 31c-.865 0-1.755-.068-2.65-.206-1.578-.242-3.174-1.048-3.626-1.29L13 28.871l1.283-.412c1.402-.45 2.255-.73 3.312-1.168-1.058-.501-1.873-1.401-2.265-2.565l-.299-.886.245.036c-.232-.228-.415-.46-.557-.671-.505-.75-.773-1.667-.716-2.452l.056-.773.474.179c-.2-.369-.345-.763-.43-1.175-.206-1.007-.033-2.076.488-3.011l.412-.74.552.648c1.745 2.048 3.954 3.263 6.577 3.619-.107-.722-.027-1.418.239-2.043.309-.727.859-1.343 1.59-1.783.812-.487 1.797-.724 2.773-.665 1.036.062 1.976.441 2.723 1.097.364-.092.633-.191.996-.325.219-.08.467-.171.777-.276l1.142-.385-.745 2.08.153-.01 1.22-.053-.721.963c-.041.055-.052.07-.067.093-.058.085-.13.192-1.12 1.484-.248.323-.371.744-.348 1.186.087 1.679-.123 3.198-.627 4.515-.477 1.245-1.215 2.314-2.194 3.176-1.212 1.067-2.757 1.797-4.593 2.171-.9.183-1.868.275-2.869.275z"/>
    </g>
</svg>
