<svg width="22" height="24" viewBox="0 0 22 24" fill="none" xmlns="http://www.w3.org/2000/svg">
<path fill-rule="evenodd" clip-rule="evenodd" d="M4.28193 2.1907V21.7165C4.28493 21.7752 4.28493 21.8341 4.28193 21.8929C4.23386 22.8279 3.44674 23.5464 2.5238 23.4977C1.60086 23.449 0.891738 22.6515 0.939806 21.7165V2.19529C0.939806 1.25904 1.68901 0.5 2.61313 0.5C3.53375 0.502527 4.27943 1.258 4.28193 2.1907ZM16.5439 8.32868L20.8928 13.2813C20.9993 13.3679 21.0617 13.4986 21.0625 13.637C21.0639 13.8908 20.862 14.0977 20.6116 14.0991H5.58794C5.33751 14.0991 5.13446 13.8934 5.13446 13.6397V3.11415C5.13446 2.86043 5.33751 2.65472 5.58794 2.65472H20.6025C20.7144 2.65501 20.8223 2.69716 20.9053 2.77308C21.0912 2.94307 21.1059 3.23361 20.9381 3.42197L16.5439 8.32868Z" fill="#FAFAFA"/>
</svg>
