<svg width="36" height="36" viewBox="0 0 36 36" fill="none" xmlns="http://www.w3.org/2000/svg">
<rect width="36" height="36" rx="6.26087" fill="#1DA1F2"/>
<path d="M16.0131 24.261C15.3363 24.261 14.6396 24.2074 13.9388 24.1C12.7044 23.9107 11.4548 23.2796 11.1012 23.0906L10.1738 22.595L11.1779 22.2722C12.2754 21.9195 12.9431 21.7006 13.7696 21.3579C12.942 20.9662 12.3042 20.2615 11.9972 19.3506L11.7636 18.6575L11.9552 18.6861C11.7735 18.5071 11.6301 18.3255 11.5189 18.1603C11.1235 17.5733 10.9142 16.856 10.9587 16.2414L11.0027 15.6364L11.3732 15.7767C11.2169 15.4881 11.104 15.18 11.0376 14.857C10.8758 14.0693 11.0112 13.2325 11.419 12.5008L11.7418 11.9216L12.1734 12.4284C13.5387 14.0315 15.268 14.9825 17.3204 15.2609C17.2366 14.696 17.2994 14.1509 17.5073 13.6623C17.7493 13.0934 18.1799 12.6109 18.7522 12.2671C19.3877 11.8853 20.1584 11.7003 20.9223 11.7461C21.7328 11.7948 22.4686 12.0916 23.0531 12.6051C23.3385 12.5326 23.5487 12.4552 23.833 12.3507C24.004 12.2877 24.1979 12.2163 24.4405 12.1346L25.3347 11.8334L24.7516 13.4613C24.7901 13.4581 24.8297 13.4555 24.8712 13.4537L25.826 13.4115L25.2616 14.1654C25.2293 14.2086 25.221 14.2208 25.2096 14.2378C25.1641 14.3048 25.1075 14.3881 24.3328 15.3992C24.1389 15.6524 24.0421 15.9821 24.0601 16.3278C24.1287 17.6417 23.9638 18.8304 23.5696 19.8609C23.1968 20.8358 22.6191 21.6723 21.8527 22.347C20.9043 23.1819 19.695 23.7535 18.2582 24.0458C17.5534 24.1891 16.7965 24.261 16.0131 24.261Z" fill="white"/>
</svg>
