<svg width="20" height="16" viewBox="0 0 20 16" fill="none" xmlns="http://www.w3.org/2000/svg">
<path fill-rule="evenodd" clip-rule="evenodd" d="M3.07664 3.0094C3.07664 1.35002 4.45129 0 6.14094 0C7.83059 0 9.20523 1.35002 9.20523 3.0094C9.20523 4.66878 7.83063 6.0188 6.14094 6.0188C4.45129 6.0188 3.07664 4.66878 3.07664 3.0094ZM3.63898 7.08248H8.64293C9.93348 7.08248 11.0691 7.74573 11.7154 8.74324C10.689 9.13999 9.96027 10.1225 9.96027 11.2697V16H0V10.6562C0 8.68562 1.63242 7.08248 3.63898 7.08248ZM20 11.2697C20 10.2006 19.1143 9.33072 18.0257 9.33072H12.7243C11.6357 9.33072 10.75 10.2005 10.75 11.2697V16H12.2819H20V11.2697ZM13.113 5.89128C13.113 4.6664 14.1277 3.66981 15.375 3.66981C16.6223 3.66981 17.637 4.66636 17.637 5.89128C17.637 7.1162 16.6223 8.11275 15.375 8.11275C14.1277 8.11275 13.113 7.1162 13.113 5.89128Z" fill="#BFC1C1"/>
</svg>
