<svg width="80" height="72" viewBox="0 0 80 72" fill="none" xmlns="http://www.w3.org/2000/svg">
<path fill-rule="evenodd" clip-rule="evenodd" d="M35.1682 0.483766C48.7252 -2.19687 61.9056 6.53292 64.6076 19.9827C73.3539 21.0448 79.9444 28.3862 79.9993 37.1281C80.0591 46.728 72.2638 54.558 62.588 54.6179H50.0729C48.6904 54.6179 47.5698 53.5062 47.5698 52.1347C47.5698 50.7632 48.6904 49.6514 50.0729 49.6514H62.5874C69.4995 49.6514 75.1025 44.0928 75.1025 37.2358C75.1025 30.3783 69.4995 24.8196 62.5874 24.8196C61.28 24.8281 60.1619 23.8902 59.9519 22.6101C58.8838 13.4468 51.5981 6.21926 42.3624 5.15899C31.3768 3.8983 21.4409 11.7113 20.1702 22.6101C20.0298 23.8678 18.9581 24.8202 17.6824 24.8196C10.7703 24.7797 5.13435 30.3057 5.09346 37.1626C5.05317 44.0195 10.6226 49.6109 17.5347 49.6514H30.0493C31.4317 49.6514 32.5523 50.7632 32.5523 52.1347C32.5523 53.5062 31.4317 54.6179 30.0493 54.6179H17.5347C8.62919 54.624 1.13598 48.002 0.116701 39.225C-0.990466 29.688 5.90461 21.0666 15.5169 19.9676C17.4993 10.1315 25.2526 2.44444 35.1682 0.483766ZM52.4483 44.622C51.4541 45.5751 49.8696 45.5478 48.9089 44.5608L42.5638 38.2634V69.5168C42.5638 70.8883 41.4432 72 40.0614 72C38.6789 72 37.5583 70.8883 37.5583 69.5168V38.2634L31.2132 44.5608C31.193 44.5814 31.1723 44.602 31.1515 44.622C30.1573 45.5745 28.5728 45.5472 27.6122 44.5608C26.6521 43.5744 26.6795 42.0025 27.6738 41.05L38.2889 30.5164C38.2895 30.5155 38.2903 30.5147 38.2911 30.514C38.2918 30.5132 38.2926 30.5124 38.2932 30.5115C39.2722 29.5433 40.8573 29.5451 41.8332 30.5164L52.4483 41.05C52.4606 41.0619 52.4729 41.0737 52.4851 41.0858C52.4935 41.0941 52.5018 41.1026 52.51 41.1112C53.47 42.0976 53.4426 43.6695 52.4483 44.622Z" fill="#2DBD58"/>
</svg>
