<svg width="20" height="20" viewBox="0 0 20 20" fill="none" xmlns="http://www.w3.org/2000/svg">
<mask id="path-1-inside-1" fill="white">
<path fill-rule="evenodd" clip-rule="evenodd" d="M8.44829 0C3.78988 0 0 3.78988 0 8.44828C0 13.1067 3.78988 16.8966 8.44829 16.8966C10.5121 16.8966 12.4054 16.1527 13.8742 14.9191L18.7387 19.7835C18.883 19.9279 19.0719 20 19.2611 20C19.4503 20 19.6392 19.9279 19.7835 19.7835C20.0722 19.4951 20.0722 19.0271 19.7835 18.7387L14.9191 13.8742C16.1527 12.4054 16.8966 10.5121 16.8966 8.44828C16.8966 3.78988 13.1066 0 8.44829 0ZM13.4477 13.301C14.667 12.0451 15.4187 10.3329 15.4187 8.44828C15.4187 4.60469 12.2916 1.47785 8.44829 1.47785C4.60469 1.47785 1.47785 4.60469 1.47785 8.44828C1.47785 12.2919 4.60469 15.4187 8.44829 15.4187C10.3328 15.4187 12.045 14.6671 13.3008 13.4478C13.3214 13.4204 13.3442 13.3942 13.3692 13.3692C13.3941 13.3443 13.4203 13.3216 13.4477 13.301Z"/>
</mask>
<path fill-rule="evenodd" clip-rule="evenodd" d="M8.44829 0C3.78988 0 0 3.78988 0 8.44828C0 13.1067 3.78988 16.8966 8.44829 16.8966C10.5121 16.8966 12.4054 16.1527 13.8742 14.9191L18.7387 19.7835C18.883 19.9279 19.0719 20 19.2611 20C19.4503 20 19.6392 19.9279 19.7835 19.7835C20.0722 19.4951 20.0722 19.0271 19.7835 18.7387L14.9191 13.8742C16.1527 12.4054 16.8966 10.5121 16.8966 8.44828C16.8966 3.78988 13.1066 0 8.44829 0ZM13.4477 13.301C14.667 12.0451 15.4187 10.3329 15.4187 8.44828C15.4187 4.60469 12.2916 1.47785 8.44829 1.47785C4.60469 1.47785 1.47785 4.60469 1.47785 8.44828C1.47785 12.2919 4.60469 15.4187 8.44829 15.4187C10.3328 15.4187 12.045 14.6671 13.3008 13.4478C13.3214 13.4204 13.3442 13.3942 13.3692 13.3692C13.3941 13.3443 13.4203 13.3216 13.4477 13.301Z" fill="#2DBD58"/>
<path d="M13.8742 14.9191L14.5813 14.212L13.9331 13.5637L13.2311 14.1533L13.8742 14.9191ZM18.7387 19.7835L19.4458 19.0764L19.4458 19.0764L18.7387 19.7835ZM19.7835 19.7835L19.0767 19.0762L19.0764 19.0764L19.7835 19.7835ZM19.7835 18.7387L19.0764 19.4458L19.0767 19.446L19.7835 18.7387ZM14.9191 13.8742L14.1533 13.2311L13.5637 13.9331L14.2119 14.5813L14.9191 13.8742ZM13.4477 13.301L14.0496 14.0995L14.1113 14.053L14.1651 13.9976L13.4477 13.301ZM13.3008 13.4478L13.9974 14.1653L14.0528 14.1114L14.0994 14.0497L13.3008 13.4478ZM13.3692 13.3692L14.076 14.0766L14.0763 14.0763L13.3692 13.3692ZM1 8.44828C1 4.34217 4.34217 1 8.44829 1V-1C3.2376 -1 -1 3.2376 -1 8.44828H1ZM8.44829 15.8966C4.34217 15.8966 1 12.5544 1 8.44828H-1C-1 13.659 3.2376 17.8966 8.44829 17.8966V15.8966ZM13.2311 14.1533C11.9351 15.2418 10.2674 15.8966 8.44829 15.8966V17.8966C10.7567 17.8966 12.8757 17.0636 14.5173 15.6848L13.2311 14.1533ZM13.1671 15.6262L18.0316 20.4906L19.4458 19.0764L14.5813 14.212L13.1671 15.6262ZM18.0316 20.4906C18.3708 20.8298 18.8172 21 19.2611 21V19C19.3266 19 19.3953 19.0259 19.4458 19.0764L18.0316 20.4906ZM19.2611 21C19.705 21 20.1514 20.8298 20.4906 20.4906L19.0764 19.0764C19.1269 19.0259 19.1956 19 19.2611 19V21ZM20.4904 20.4909C21.1699 19.8118 21.1699 18.7103 20.4904 18.0313L19.0767 19.446C18.9744 19.3439 18.9744 19.1783 19.0767 19.0762L20.4904 20.4909ZM20.4906 18.0316L15.6262 13.1671L14.2119 14.5813L19.0764 19.4458L20.4906 18.0316ZM15.8966 8.44828C15.8966 10.2674 15.2418 11.9351 14.1533 13.2311L15.6848 14.5174C17.0636 12.8757 17.8966 10.7567 17.8966 8.44828H15.8966ZM8.44829 1C12.5544 1 15.8966 4.34217 15.8966 8.44828H17.8966C17.8966 3.23759 13.6589 -1 8.44829 -1V1ZM14.1651 13.9976C15.5577 12.5633 16.4187 10.6041 16.4187 8.44828H14.4187C14.4187 10.0616 13.7763 11.527 12.7302 12.6044L14.1651 13.9976ZM16.4187 8.44828C16.4187 4.05238 12.8439 0.477852 8.44829 0.477852V2.47785C11.7394 2.47785 14.4187 5.15699 14.4187 8.44828H16.4187ZM8.44829 0.477852C4.05241 0.477852 0.477852 4.0524 0.477852 8.44828H2.47785C2.47785 5.15697 5.15697 2.47785 8.44829 2.47785V0.477852ZM0.477852 8.44828C0.477852 12.8442 4.05241 16.4187 8.44829 16.4187V14.4187C5.15697 14.4187 2.47785 11.7396 2.47785 8.44828H0.477852ZM8.44829 16.4187C10.604 16.4187 12.5631 15.5578 13.9974 14.1653L12.6042 12.7303C11.5268 13.7763 10.0615 14.4187 8.44829 14.4187V16.4187ZM12.6624 12.6618C12.6043 12.7198 12.5509 12.7814 12.5022 12.8459L14.0994 14.0497C14.092 14.0595 14.0842 14.0685 14.076 14.0766L12.6624 12.6618ZM12.8457 12.5024C12.7813 12.5509 12.72 12.6042 12.6621 12.6621L14.0763 14.0763C14.0682 14.0844 14.0593 14.0922 14.0496 14.0995L12.8457 12.5024Z" fill="#2B3331" mask="url(#path-1-inside-1)"/>
</svg>
