<svg width="32" height="32" viewBox="0 0 32 32" fill="none" xmlns="http://www.w3.org/2000/svg">
<g id="arrow">
<rect id="Bg" opacity="0.01" x="0.666016" y="0.666504" width="30.6667" height="30.6667" rx="3.83333" fill="#030303" fill-opacity="0.01" stroke="#50E3C2" stroke-width="0.5"/>
<path id="Shape" fill-rule="evenodd" clip-rule="evenodd" d="M20.4075 20.4656L23.417 17.195C23.417 17.195 7.31868 17.2088 5.708 17.2088C4.09733 17.2088 4.09733 14.7878 5.708 14.7878L23.417 14.774L20.4541 11.5321C20.032 11.0703 20.0463 10.3666 20.4868 9.92175C20.8892 9.51543 21.551 9.50616 21.965 9.90106C21.9828 9.91805 22 9.93566 22.0165 9.95385L27.5 15.9874L21.969 22.0465C21.5829 22.4695 20.9206 22.5051 20.4896 22.1262C20.4714 22.1101 20.4537 22.0934 20.4366 22.0762C19.9964 21.6305 19.9836 20.9262 20.4075 20.4656Z" fill="white"/>
<mask id="mask0" mask-type="alpha" maskUnits="userSpaceOnUse" x="4" y="9" width="24" height="14">
<path id="Shape_2" fill-rule="evenodd" clip-rule="evenodd" d="M20.4075 20.4656L23.417 17.195C23.417 17.195 7.31868 17.2088 5.708 17.2088C4.09733 17.2088 4.09733 14.7878 5.708 14.7878L23.417 14.774L20.4541 11.5321C20.032 11.0703 20.0463 10.3666 20.4868 9.92175C20.8892 9.51543 21.551 9.50616 21.965 9.90106C21.9828 9.91805 22 9.93566 22.0165 9.95385L27.5 15.9874L21.969 22.0465C21.5829 22.4695 20.9206 22.5051 20.4896 22.1262C20.4714 22.1101 20.4537 22.0934 20.4366 22.0762C19.9964 21.6305 19.9836 20.9262 20.4075 20.4656Z" fill="white"/>
</mask>
<g mask="url(#mask0)">
</g>
</g>
</svg>
