<svg width="10" height="12" viewBox="0 0 10 12" fill="none" xmlns="http://www.w3.org/2000/svg">
<path fill-rule="evenodd" clip-rule="evenodd" d="M8.33333 4.5H8.75C9.43888 4.5 10 5.00446 10 5.625V10.875C10 11.4955 9.43888 12 8.75 12H1.25C0.561117 12 0 11.4955 0 10.875V5.625C0 5.00446 0.561117 4.5 1.25 4.5H1.66667V3C1.66667 1.34546 3.16162 0 5 0C6.83838 0 8.33333 1.34546 8.33333 3V4.5ZM5 0.857143C3.74654 0.857143 2.72727 1.73579 2.72727 2.81631V4.28571H7.27273V2.81631C7.27273 1.73579 6.25346 0.857143 5 0.857143Z" fill="#2DBD58"/>
</svg>
