<svg width="20" height="20" viewBox="0 0 20 20" fill="none" xmlns="http://www.w3.org/2000/svg">
<path fill-rule="evenodd" clip-rule="evenodd" d="M2.49168 18.3334H9.9668C10.4261 18.3334 10.7973 18.7059 10.7973 19.1667C10.7973 19.6275 10.4261 20 9.9668 20H2.49168C1.11793 20 0 18.8783 0 17.5V2.50002C0 1.1217 1.11793 0 2.49168 0H9.9668C10.4261 0 10.7973 0.372566 10.7973 0.833394C10.7973 1.29422 10.4261 1.66671 9.9668 1.66671H2.49168C2.03324 1.66671 1.66113 2.04002 1.66113 2.50002V17.5001C1.66113 17.96 2.0332 18.3334 2.49168 18.3334ZM14.7027 4.40667L19.7525 9.40668C19.9111 9.5642 20 9.7767 20 9.99994C20 10.2233 19.9103 10.4366 19.7525 10.5933L14.7027 15.5933C14.5415 15.7533 14.3306 15.8333 14.1196 15.8333C13.9053 15.8333 13.691 15.75 13.5282 15.585C13.2068 15.2575 13.2093 14.73 13.5366 14.4067L17.1454 10.8333H7.47508C7.01578 10.8333 6.64453 10.4608 6.64453 9.99998C6.64453 9.53915 7.01578 9.16667 7.47508 9.16667H17.1454L13.5366 5.59335C13.2093 5.27001 13.206 4.74251 13.5282 4.41502C13.8505 4.08753 14.3771 4.08333 14.7027 4.40667Z" fill="#E42727"/>
</svg>
