<svg width="24" height="24" viewBox="0 0 24 24" fill="none" xmlns="http://www.w3.org/2000/svg">
<path d="M17.9624 11.9058C18.0321 11.9493 18.0321 12.0507 17.9624 12.0942L5.17 20.0895C5.14433 20.1055 5.12681 20.1081 5.11429 20.1082C5.09845 20.1083 5.07811 20.104 5.05725 20.0925C5.03638 20.0809 5.02199 20.0659 5.0137 20.0524C5.00715 20.0417 5 20.0255 5 19.9953L5 4.00472C5 3.97445 5.00715 3.95825 5.0137 3.94759C5.02199 3.93409 5.03638 3.9191 5.05725 3.90754C5.07811 3.89597 5.09845 3.89171 5.11429 3.89183C5.12681 3.89193 5.14433 3.89446 5.17 3.9105L17.9624 11.9058Z" stroke="#2DBD58" stroke-width="2"/>
</svg>
