<svg width="36" height="36" viewBox="0 0 36 36" fill="none" xmlns="http://www.w3.org/2000/svg">
<rect width="36" height="36" rx="6.26087" fill="url(#paint0_linear)"/>
<path fill-rule="evenodd" clip-rule="evenodd" d="M14.7205 10.1738H21.2793C23.7864 10.1738 25.826 12.2135 25.826 14.7205V21.2793C25.826 23.7864 23.7864 25.826 21.2793 25.826H14.7205C12.2135 25.826 10.1738 23.7864 10.1738 21.2793V14.7205C10.1738 12.2135 12.2135 10.1738 14.7205 10.1738ZM21.2793 24.6032C23.1121 24.6032 24.6032 23.1121 24.6032 21.2793V14.7205C24.6032 12.8877 23.1121 11.3967 21.2793 11.3967H14.7205C12.8877 11.3967 11.3967 12.8877 11.3967 14.7205V21.2793C11.3967 23.1121 12.8877 24.6032 14.7205 24.6032H21.2793ZM13.7812 17.9999C13.7812 15.6737 15.6737 13.7812 17.9999 13.7812C20.3262 13.7812 22.2187 15.6737 22.2187 17.9999C22.2187 20.3262 20.3262 22.2187 17.9999 22.2187C15.6737 22.2187 13.7812 20.3262 13.7812 17.9999ZM15.004 17.9999C15.004 19.6519 16.348 20.9958 17.9999 20.9958C19.6519 20.9958 20.9958 19.6519 20.9958 17.9999C20.9958 16.348 19.6519 15.004 17.9999 15.004C16.348 15.004 15.004 16.348 15.004 17.9999ZM22.2798 14.3314C22.6175 14.3314 22.8912 14.0577 22.8912 13.72C22.8912 13.3823 22.6175 13.1086 22.2798 13.1086C21.9421 13.1086 21.6684 13.3823 21.6684 13.72C21.6684 14.0577 21.9421 14.3314 22.2798 14.3314Z" fill="white"/>
<defs>
<linearGradient id="paint0_linear" x1="18.053" y1="49.2955" x2="49.3349" y2="18.0237" gradientUnits="userSpaceOnUse">
<stop stop-color="#FFDD55"/>
<stop offset="0.5" stop-color="#FF543E"/>
<stop offset="1" stop-color="#C837AB"/>
</linearGradient>
</defs>
</svg>
