<svg width="12" height="12" viewBox="0 0 12 12" fill="none" xmlns="http://www.w3.org/2000/svg">
<path fill-rule="evenodd" clip-rule="evenodd" d="M11.5765 5.03834C11.7466 5.03834 11.9434 5.16523 11.9623 5.33389C12.0133 5.78834 12.0127 6.2472 11.9597 6.69823C11.9389 6.87389 11.7807 7.00649 11.6085 6.99253L11.5343 6.99056C11.0039 6.99056 10.5108 7.31729 10.3069 7.80392C10.09 8.3208 10.2254 8.92253 10.643 9.30054C10.7739 9.41912 10.7896 9.61907 10.6788 9.7566C10.3935 10.112 10.0671 10.4349 9.70819 10.7163C9.57004 10.8232 9.37397 10.8075 9.25539 10.6784C8.89829 10.2864 8.26318 10.1388 7.76944 10.3405C7.25862 10.5496 6.92825 11.0639 6.94833 11.62C6.9542 11.7944 6.82539 11.9444 6.65143 11.9636C6.43186 11.988 6.21229 12 5.99276 12C5.76146 12 5.53088 11.9867 5.3015 11.9599C5.12614 11.9399 4.99672 11.7859 5.00715 11.6093C5.03896 11.0473 4.71315 10.5239 4.19523 10.3072C3.70081 10.0996 3.05849 10.2465 2.69947 10.6435C2.58026 10.7749 2.38025 10.7905 2.24273 10.6797C1.89243 10.3976 1.57233 10.0745 1.2937 9.71939C1.18534 9.58244 1.20174 9.38539 1.33008 9.26743C1.74037 8.89113 1.8753 8.29506 1.66569 7.78363C1.45504 7.27157 0.953619 6.94826 0.431022 6.96155C0.259037 6.96155 0.0564851 6.83575 0.0375429 6.66636C-0.0132118 6.21207 -0.012641 5.75269 0.0400858 5.30208C0.0611039 5.12906 0.196502 5.00124 0.386754 5.00736C0.973028 5.00736 1.48519 4.6896 1.69226 4.19633C1.90914 3.67893 1.77446 3.07746 1.35675 2.69919C1.22665 2.58082 1.2103 2.38112 1.32099 2.24334C1.60507 1.88889 1.93207 1.56584 2.29161 1.28368C2.42919 1.17642 2.62645 1.1923 2.74441 1.32162C3.1013 1.71421 3.73926 1.8603 4.22974 1.65993C4.74118 1.45043 5.07082 0.93619 5.05136 0.379816C5.0456 0.205446 5.17462 0.0556231 5.34837 0.0364217C5.79789 -0.0134501 6.25007 -0.0119451 6.6983 0.0399506C6.87428 0.0604495 7.00339 0.213905 6.99286 0.390506C6.96084 0.952382 7.2868 1.47585 7.80322 1.69314C8.29966 1.90026 8.94209 1.75308 9.29971 1.35701C9.41829 1.22577 9.61908 1.21051 9.75572 1.32011C10.105 1.59988 10.4248 1.92273 10.7063 2.28008C10.8144 2.41719 10.7987 2.61471 10.6697 2.73267C10.2601 3.10844 10.1253 3.70478 10.3342 4.21621C10.5388 4.71565 11.0267 5.03834 11.5765 5.03834ZM2.54087 6.00007C2.54087 7.91046 4.08951 9.45908 5.99998 9.45908C6.68548 9.45908 7.3238 9.25887 7.86135 8.9149L6.33025 7.38382C6.07175 7.49348 5.79146 7.55134 5.50219 7.55134C4.93574 7.55134 4.40318 7.33078 4.00259 6.93025C3.46717 6.39479 3.25751 5.60753 3.45529 4.87565C3.48425 4.76921 3.57621 4.695 3.67891 4.695C3.72297 4.695 3.78908 4.70849 3.85354 4.77274C3.85354 4.77274 4.57199 5.48605 4.83241 5.74646C4.87279 5.78678 4.91721 5.79524 4.94741 5.79524C4.95291 5.79524 4.95707 5.79493 4.9593 5.79467L4.97186 5.7915L4.9718 5.79301C5.25122 5.768 5.58647 5.7188 5.71501 5.67754C5.71663 5.67588 5.71822 5.67424 5.7198 5.6726C5.72368 5.66859 5.72753 5.66461 5.73162 5.66052C5.73451 5.65763 5.73729 5.65501 5.74006 5.6524C5.74256 5.65004 5.74505 5.64769 5.7476 5.64516C5.78772 5.51827 5.83635 5.18811 5.86157 4.91306L5.8639 4.89661C5.86759 4.87409 5.86764 4.81156 5.84143 4.78535C5.59124 4.53521 4.84346 3.78169 4.84346 3.78169C4.77963 3.7178 4.75519 3.63409 4.77688 3.55241C4.79811 3.47254 4.86329 3.40684 4.943 3.3851C5.125 3.33554 5.31313 3.31042 5.50213 3.31042C6.06848 3.31042 6.60099 3.53098 7.00147 3.93146C7.40206 4.33194 7.62267 4.86444 7.62267 5.43088C7.62273 5.72015 7.56481 6.00044 7.45515 6.25898L8.9698 7.77366C9.2803 7.25502 9.45908 6.64851 9.45908 6.00007C9.45908 4.08969 7.91039 2.54107 5.99998 2.54107C4.08957 2.54107 2.54087 4.08969 2.54087 6.00007Z" fill="#2B3331" fill-opacity="0.6"/>
</svg>
