<svg width="20" height="20" viewBox="0 0 20 20" fill="none" xmlns="http://www.w3.org/2000/svg">
<path fill-rule="evenodd" clip-rule="evenodd" d="M17.6698 11.0506L19.8455 12.8125C20.0061 12.9423 20.0469 13.1649 19.9422 13.3402L17.9612 16.6597C17.8565 16.8351 17.6361 16.9108 17.4405 16.8428L14.7795 15.9021C14.2104 16.333 13.5783 16.685 12.8948 16.9507L12.4053 19.6554C12.3692 19.8547 12.19 20 11.9809 20H8.01903C7.81 20 7.63085 19.8547 7.59467 19.6554L7.10511 16.9507C6.42167 16.685 5.78954 16.333 5.22048 15.9021L2.55945 16.8428C2.36512 16.9124 2.14389 16.8351 2.03876 16.6597L0.0577812 13.3402C-0.0469545 13.1649 -0.00613423 12.9423 0.154522 12.8125L2.33023 11.0506C2.27471 10.6832 2.24778 10.3377 2.24778 9.99998C2.24778 9.66225 2.27471 9.31678 2.33019 8.94936L0.154522 7.18749C-0.00613423 7.05772 -0.0469545 6.83514 0.0577812 6.65975L2.03876 3.34027C2.14309 3.16488 2.36386 3.08675 2.55945 3.15714L5.22052 4.09792C5.78958 3.66702 6.42171 3.31503 7.10515 3.04933L7.59471 0.344648C7.63085 0.145273 7.81004 0 8.01907 0H11.981C12.19 0 12.3692 0.145273 12.4053 0.34457L12.8949 3.04925C13.5783 3.31495 14.2105 3.66695 14.7795 4.09784L17.4406 3.1571C17.6374 3.08796 17.8565 3.16527 17.9612 3.34023L19.9422 6.65975C20.047 6.8351 20.0061 7.05768 19.8455 7.18749L17.6698 8.94936C17.7253 9.31678 17.7522 9.66225 17.7522 9.99998C17.7522 10.3377 17.7253 10.6832 17.6698 11.0506ZM5.6932 9.99998C5.6932 12.2974 7.62536 14.1667 10 14.1667C12.3746 14.1667 14.3068 12.2973 14.3068 9.99998C14.3068 7.70264 12.3746 5.83331 10 5.83331C7.62536 5.83331 5.6932 7.7026 5.6932 9.99998Z" fill="#BFC1C1"/>
</svg>
