<svg width="16" height="12" viewBox="0 0 16 12" fill="none" xmlns="http://www.w3.org/2000/svg">
<path opacity="0.6" fill-rule="evenodd" clip-rule="evenodd" d="M8 0C4.36363 0 1.25819 2.48797 0 6C1.25819 9.51199 4.36363 12 8 12C11.64 12 14.7418 9.51199 16 6C14.7418 2.48797 11.64 0 8 0ZM8 9.99998C5.99273 9.99998 4.36363 8.20796 4.36363 5.99996C4.36363 3.79196 5.99273 1.99999 8 1.99999C10.0073 1.99999 11.6364 3.792 11.6364 6C11.6364 8.208 10.0073 9.99998 8 9.99998ZM5.81818 6C5.81818 4.67599 6.79635 3.6 8 3.6C9.20361 3.6 10.1818 4.67599 10.1818 6C10.1818 7.32401 9.20365 8.4 8 8.4C6.79635 8.4 5.81818 7.32401 5.81818 6Z" fill="#2B3331"/>
</svg>
