<svg width="17" height="11" viewBox="0 0 17 11" fill="none" xmlns="http://www.w3.org/2000/svg">
<path fill-rule="evenodd" clip-rule="evenodd" d="M0.359478 0C0.160944 0 0 0.160943 0 0.359477V1.47386C0 1.67239 0.160943 1.83333 0.359477 1.83333H16.6405C16.8391 1.83333 17 1.67239 17 1.47386V0.359477C17 0.160944 16.8391 0 16.6405 0H0.359478ZM6.61111 10.6405C6.61111 10.8391 6.77205 11 6.97059 11H10.0294C10.2279 11 10.3889 10.8391 10.3889 10.6405V9.52614C10.3889 9.32761 10.2279 9.16667 10.0294 9.16667H6.97059C6.77205 9.16667 6.61111 9.32761 6.61111 9.52614V10.6405ZM3.19281 6.41667C2.99428 6.41667 2.83333 6.25572 2.83333 6.05719V4.94281C2.83333 4.74428 2.99428 4.58333 3.19281 4.58333H13.8072C14.0057 4.58333 14.1667 4.74428 14.1667 4.94281V6.05719C14.1667 6.25572 14.0057 6.41667 13.8072 6.41667H3.19281Z" fill="white"/>
</svg>
