<svg width="18" height="18" viewBox="0 0 18 18" fill="none" xmlns="http://www.w3.org/2000/svg">
<path fill-rule="evenodd" clip-rule="evenodd" d="M8.99998 0C4.02751 0 0 4.02752 0 9C0 13.9725 4.02751 18 8.99998 18C13.9724 18 18 13.9725 18 9C18 4.02748 13.9725 0 8.99998 0ZM1.80001 9C1.80001 5.02201 5.022 1.79997 9.00002 1.79997C10.665 1.79997 12.1905 2.37149 13.41 3.31649L3.31648 13.41C2.37148 12.1905 1.80001 10.665 1.80001 9ZM4.59 14.6835C5.80947 15.6285 7.33497 16.2 8.99998 16.2C12.978 16.2 16.2 12.978 16.2 9C16.2 7.33503 15.6285 5.80952 14.6835 4.59001L4.59 14.6835Z" fill="#E42727"/>
</svg>
