<svg width="32" height="32" viewBox="0 0 32 32" fill="none" xmlns="http://www.w3.org/2000/svg">
<path fill-rule="evenodd" clip-rule="evenodd" d="M9.53847 4H22.4616C23.3099 4 24 4.678 24 5.51134V27.063C24 27.3913 23.8194 27.6938 23.528 27.854C23.2366 28.0148 22.8794 28.0079 22.5945 27.8359L16.0018 23.8659L9.4083 27.8649C9.25971 27.955 9.0917 28 8.92307 28C8.76833 28 8.61354 27.9619 8.47354 27.8852C8.18123 27.7249 8 27.4221 8 27.0932V5.51134C8 4.678 8.69017 4 9.53847 4ZM16.4828 22.0278L22.1539 25.4431V5.81359H9.84614V25.4676L15.5151 22.0293C15.8114 21.8498 16.1855 21.8489 16.4828 22.0278Z" fill="white"/>
<path d="M23.528 27.854L23.3633 27.5544L23.3628 27.5547L23.528 27.854ZM22.5945 27.8359L22.7711 27.5432L22.7708 27.543L22.5945 27.8359ZM16.0018 23.8659L16.1782 23.573L16.0012 23.4664L15.8245 23.5736L16.0018 23.8659ZM9.4083 27.8649L9.58549 28.1573L9.58559 28.1572L9.4083 27.8649ZM8.47354 27.8852L8.63793 27.5854L8.63786 27.5854L8.47354 27.8852ZM22.1539 25.4431L21.9775 25.736L22.4957 26.0481V25.4431H22.1539ZM16.4828 22.0278L16.6591 21.7349L16.6591 21.7349L16.4828 22.0278ZM22.1539 5.81359H22.4957V5.47171H22.1539V5.81359ZM9.84614 5.81359V5.47171H9.50426V5.81359H9.84614ZM9.84614 25.4676H9.50426V26.0748L10.0234 25.7599L9.84614 25.4676ZM15.5151 22.0293L15.3379 21.7369L15.3378 21.737L15.5151 22.0293ZM22.4616 3.65812H9.53847V4.34188H22.4616V3.65812ZM24.3419 5.51134C24.3419 4.48349 23.4929 3.65812 22.4616 3.65812V4.34188C23.1268 4.34188 23.6581 4.87251 23.6581 5.51134H24.3419ZM24.3419 27.063V5.51134H23.6581V27.063H24.3419ZM23.6927 28.1536C24.0915 27.9343 24.3419 27.5181 24.3419 27.063H23.6581C23.6581 27.2645 23.5473 27.4533 23.3633 27.5544L23.6927 28.1536ZM22.4178 28.1286C22.8073 28.3637 23.2949 28.3732 23.6932 28.1534L23.3628 27.5547C23.1784 27.6565 22.9515 27.6521 22.7711 27.5432L22.4178 28.1286ZM15.8255 24.1588L22.4181 28.1288L22.7708 27.543L16.1782 23.573L15.8255 24.1588ZM9.58559 28.1572L16.1791 24.1582L15.8245 23.5736L9.23101 27.5726L9.58559 28.1572ZM8.92307 28.3419C9.15259 28.3419 9.38213 28.2805 9.58549 28.1573L9.23111 27.5725C9.1373 27.6294 9.03081 27.6581 8.92307 27.6581V28.3419ZM8.30914 28.1849C8.50076 28.29 8.71228 28.3419 8.92307 28.3419V27.6581C8.82438 27.6581 8.72632 27.6339 8.63793 27.5854L8.30914 28.1849ZM7.65812 27.0932C7.65812 27.5492 7.90941 27.9658 8.30921 28.185L8.63786 27.5854C8.45304 27.4841 8.34188 27.295 8.34188 27.0932H7.65812ZM7.65812 5.51134V27.0932H8.34188V5.51134H7.65812ZM9.53847 3.65812C8.50711 3.65812 7.65812 4.48348 7.65812 5.51134H8.34188C8.34188 4.87252 8.87323 4.34188 9.53847 4.34188V3.65812ZM22.3302 25.1502L16.6591 21.7349L16.3064 22.3207L21.9775 25.736L22.3302 25.1502ZM21.812 5.81359V25.4431H22.4957V5.81359H21.812ZM9.84614 6.15547H22.1539V5.47171H9.84614V6.15547ZM10.188 25.4676V5.81359H9.50426V25.4676H10.188ZM15.3378 21.737L9.66885 25.1753L10.0234 25.7599L15.6924 22.3216L15.3378 21.737ZM16.6591 21.7349C16.2529 21.4904 15.7427 21.4917 15.3379 21.7369L15.6922 22.3217C15.8801 22.2079 16.1182 22.2074 16.3064 22.3207L16.6591 21.7349Z" fill="white"/>
</svg>
