<svg width="24" height="25" viewBox="0 0 24 25" fill="none" xmlns="http://www.w3.org/2000/svg">
<path fill-rule="evenodd" clip-rule="evenodd" d="M11.9833 16.406C11.9792 16.4059 11.9751 16.4057 11.9711 16.4055C11.9339 16.4036 11.8977 16.3978 11.8628 16.3887C11.7971 16.3716 11.734 16.342 11.6767 16.2998C11.6454 16.2768 11.6164 16.2506 11.5902 16.2216L8.60248 13.1094C8.38275 12.8805 8.38275 12.5094 8.60248 12.2804C8.8222 12.0515 9.17844 12.0515 9.3983 12.2804L11.4375 14.4047V3.71094C11.4375 3.3875 11.6895 3.125 12 3.125C12.3105 3.125 12.5625 3.3875 12.5625 3.71094V14.4062L14.6032 12.2804C14.8229 12.0515 15.1793 12.0515 15.399 12.2804C15.6188 12.5094 15.6188 12.8805 15.399 13.1094L12.3989 16.2344C12.32 16.3161 12.2244 16.3685 12.1239 16.392C12.084 16.4014 12.0426 16.4063 12 16.4063C11.9944 16.4063 11.9889 16.4062 11.9833 16.406ZM3 19.7265C3 20.9117 3.92477 21.875 5.06255 21.875H18.9375C20.0752 21.875 21 20.9117 21 19.7265V16.2109C21 15.8875 20.748 15.625 20.4375 15.625C20.127 15.625 19.875 15.8875 19.875 16.2109V19.7265C19.875 20.2648 19.4542 20.7031 18.9375 20.7031H5.06255C4.54578 20.7031 4.125 20.2648 4.125 19.7265V16.2109C4.125 15.8875 3.873 15.625 3.5625 15.625C3.252 15.625 3 15.8875 3 16.2109V19.7265Z" fill="#2DBD58"/>
<path d="M11.9711 16.4055L11.9447 16.9048L11.9447 16.9048L11.9711 16.4055ZM11.9833 16.406L11.968 16.9058L11.9681 16.9058L11.9833 16.406ZM11.8628 16.3887L11.9892 15.905L11.9889 15.9049L11.8628 16.3887ZM11.6767 16.2998L11.9732 15.8972L11.9724 15.8966L11.6767 16.2998ZM11.5902 16.2216L11.9613 15.8866L11.9562 15.8809L11.9509 15.8753L11.5902 16.2216ZM8.60248 13.1094L8.96317 12.7631L8.60248 13.1094ZM8.60248 12.2804L8.24178 11.9342L8.24168 11.9343L8.60248 12.2804ZM9.3983 12.2804L9.759 11.9342L9.75889 11.934L9.3983 12.2804ZM11.4375 14.4047L11.0768 14.751L11.9375 15.6476V14.4047H11.4375ZM12.5625 14.4062H12.0625V15.649L12.9232 14.7524L12.5625 14.4062ZM15.399 12.2804L15.7598 11.9343L15.7597 11.9342L15.399 12.2804ZM15.399 13.1094L15.7597 13.4557L15.7597 13.4557L15.399 13.1094ZM12.3989 16.2344L12.7586 16.5817L12.7596 16.5806L12.3989 16.2344ZM12.1239 16.392L12.0101 15.9051L12.0098 15.9052L12.1239 16.392ZM11.9447 16.9048C11.9525 16.9053 11.9603 16.9056 11.968 16.9058L11.9986 15.9063C11.9982 15.9063 11.9978 15.9062 11.9974 15.9062L11.9447 16.9048ZM11.7363 16.8724C11.8036 16.8901 11.8734 16.9011 11.9447 16.9048L11.9975 15.9062C11.9944 15.9061 11.9918 15.9056 11.9892 15.905L11.7363 16.8724ZM11.3802 16.7024C11.4892 16.7827 11.6103 16.8396 11.7366 16.8725L11.9889 15.9049C11.984 15.9036 11.9788 15.9013 11.9732 15.8972L11.3802 16.7024ZM11.2191 16.5567C11.2678 16.6106 11.322 16.6597 11.381 16.703L11.9724 15.8966C11.9688 15.8939 11.965 15.8906 11.9613 15.8866L11.2191 16.5567ZM8.24178 13.4557L11.2295 16.5679L11.9509 15.8753L8.96317 12.7631L8.24178 13.4557ZM8.24168 11.9343C7.83641 12.3567 7.83626 13.0332 8.24178 13.4557L8.96317 12.7631C8.94822 12.7476 8.93768 12.7241 8.93768 12.695C8.93768 12.6658 8.94823 12.6423 8.96328 12.6266L8.24168 11.9343ZM9.75889 11.934C9.34232 11.5004 8.65835 11.5002 8.24178 11.9342L8.96317 12.6267C8.97713 12.6121 8.99013 12.6088 9.00034 12.6088C9.01055 12.6088 9.02364 12.6121 9.03771 12.6268L9.75889 11.934ZM11.7982 14.0584L9.759 11.9342L9.0376 12.6267L11.0768 14.751L11.7982 14.0584ZM10.9375 3.71094V14.4047H11.9375V3.71094H10.9375ZM12 2.625C11.3943 2.625 10.9375 3.13079 10.9375 3.71094H11.9375C11.9375 3.68073 11.9489 3.65766 11.963 3.64295C11.9768 3.62858 11.9897 3.625 12 3.625V2.625ZM13.0625 3.71094C13.0625 3.13079 12.6057 2.625 12 2.625V3.625C12.0103 3.625 12.0232 3.62858 12.037 3.64295C12.0511 3.65766 12.0625 3.68073 12.0625 3.71094H13.0625ZM13.0625 14.4062V3.71094H12.0625V14.4062H13.0625ZM14.2425 11.9342L12.2018 14.0599L12.9232 14.7524L14.9639 12.6267L14.2425 11.9342ZM15.7597 11.9342C15.3432 11.5003 14.659 11.5003 14.2425 11.9342L14.9639 12.6267C14.9778 12.6122 14.9909 12.6088 15.0011 12.6088C15.0114 12.6088 15.0244 12.6122 15.0383 12.6267L15.7597 11.9342ZM15.7597 13.4557C16.1653 13.0332 16.1651 12.3567 15.7598 11.9343L15.0382 12.6266C15.0533 12.6423 15.0638 12.6658 15.0638 12.695C15.0638 12.7241 15.0533 12.7476 15.0383 12.7631L15.7597 13.4557ZM12.7596 16.5806L15.7597 13.4557L15.0383 12.7631L12.0383 15.8881L12.7596 16.5806ZM12.2376 16.8789C12.4315 16.8336 12.6126 16.7328 12.7586 16.5817L12.0393 15.887C12.033 15.8936 12.0273 15.8976 12.0229 15.9001C12.0184 15.9026 12.0141 15.9042 12.0101 15.9051L12.2376 16.8789ZM12 16.9063C12.0813 16.9063 12.1611 16.8969 12.238 16.8788L12.0098 15.9052C12.007 15.9059 12.0038 15.9063 12 15.9063V16.9063ZM11.9681 16.9058C11.9787 16.9061 11.9893 16.9063 12 16.9063V15.9063C11.9995 15.9063 11.999 15.9063 11.9985 15.9063L11.9681 16.9058ZM5.06255 21.375C4.21996 21.375 3.5 20.655 3.5 19.7265H2.5C2.5 21.1684 3.62959 22.375 5.06255 22.375V21.375ZM18.9375 21.375H5.06255V22.375H18.9375V21.375ZM20.5 19.7265C20.5 20.655 19.78 21.375 18.9375 21.375V22.375C20.3704 22.375 21.5 21.1684 21.5 19.7265H20.5ZM20.5 16.2109V19.7265H21.5V16.2109H20.5ZM20.4375 16.125C20.4478 16.125 20.4607 16.1285 20.4745 16.1429C20.4886 16.1576 20.5 16.1807 20.5 16.2109H21.5C21.5 15.6307 21.0432 15.125 20.4375 15.125V16.125ZM20.375 16.2109C20.375 16.1807 20.3864 16.1576 20.4005 16.1429C20.4143 16.1285 20.4272 16.125 20.4375 16.125V15.125C19.8318 15.125 19.375 15.6307 19.375 16.2109H20.375ZM20.375 19.7265V16.2109H19.375V19.7265H20.375ZM18.9375 21.2031C19.7494 21.2031 20.375 20.5215 20.375 19.7265H19.375C19.375 20.0081 19.159 20.2031 18.9375 20.2031V21.2031ZM5.06255 21.2031H18.9375V20.2031H5.06255V21.2031ZM3.625 19.7265C3.625 20.5215 4.25059 21.2031 5.06255 21.2031V20.2031C4.84096 20.2031 4.625 20.0081 4.625 19.7265H3.625ZM3.625 16.2109V19.7265H4.625V16.2109H3.625ZM3.5625 16.125C3.57282 16.125 3.58571 16.1285 3.59949 16.1429C3.61362 16.1576 3.625 16.1807 3.625 16.2109H4.625C4.625 15.6307 4.16818 15.125 3.5625 15.125V16.125ZM3.5 16.2109C3.5 16.1807 3.51138 16.1576 3.52551 16.1429C3.53929 16.1285 3.55218 16.125 3.5625 16.125V15.125C2.95682 15.125 2.5 15.6307 2.5 16.2109H3.5ZM3.5 19.7265V16.2109H2.5V19.7265H3.5Z" fill="#2DBD58"/>
</svg>
