<svg xmlns="http://www.w3.org/2000/svg" width="24" height="24" viewBox="0 0 24 24">
    <g fill="none" fill-rule="evenodd">
        <path d="M24 0L0 0 0 24 24 24z" transform="matrix(1 0 0 -1 0 24)"/>
        <path fill="#2B3331" d="M15.867 14.32h-.818l-.284-.282c1.004-1.17 1.614-2.687 1.614-4.349C16.38 5.995 13.384 3 9.69 3 5.996 3 3 5.995 3 9.69c0 3.694 2.995 6.688 6.69 6.688 1.662 0 3.178-.609 4.348-1.611l.284.282v.815L19.466 21 21 19.466l-5.133-5.146zm-6.177 0c-2.559 0-4.632-2.073-4.632-4.63 0-2.558 2.073-4.632 4.632-4.632 2.557 0 4.63 2.074 4.63 4.631 0 2.558-2.073 4.631-4.63 4.631z" opacity=".54"/>
    </g>
</svg>
