<svg width="20" height="20" viewBox="0 0 20 20" fill="none" xmlns="http://www.w3.org/2000/svg">
<path fill-rule="evenodd" clip-rule="evenodd" d="M12.0833 2.08333C12.0833 3.23393 11.1506 4.16667 10 4.16667C8.84941 4.16667 7.91667 3.23393 7.91667 2.08333C7.91667 0.93274 8.84941 0 10 0C11.1506 0 12.0833 0.93274 12.0833 2.08333ZM17.9167 13.75C17.9167 14.9006 16.9839 15.8333 15.8333 15.8333C14.6827 15.8333 13.75 14.9006 13.75 13.75C13.75 12.5994 14.6827 11.6667 15.8333 11.6667C16.9839 11.6667 17.9167 12.5994 17.9167 13.75ZM4.16667 15.8333C5.31726 15.8333 6.25 14.9006 6.25 13.75C6.25 12.5994 5.31726 11.6667 4.16667 11.6667C3.01607 11.6667 2.08333 12.5994 2.08333 13.75C2.08333 14.9006 3.01607 15.8333 4.16667 15.8333ZM6.45833 8.33333C6.11333 8.33333 5.83333 8.05333 5.83333 7.70833V7.29167C5.83333 6.0275 6.86083 5 8.125 5H11.875C13.1392 5 14.1667 6.0275 14.1667 7.29167V7.70833C14.1667 8.05333 13.8867 8.33333 13.5417 8.33333H6.45833ZM12.2917 20H19.375C19.72 20 20 19.72 20 19.375V18.9583C20 17.6942 18.9725 16.6667 17.7083 16.6667H13.9583C12.6942 16.6667 11.6667 17.6942 11.6667 18.9583V19.375C11.6667 19.72 11.9467 20 12.2917 20ZM7.70833 20H0.625C0.28 20 0 19.72 0 19.375V18.9583C0 17.6942 1.0275 16.6667 2.29167 16.6667H6.04167C7.30583 16.6667 8.33333 17.6942 8.33333 18.9583V19.375C8.33333 19.72 8.05333 20 7.70833 20ZM1.66667 10.01C1.66667 10.355 1.94667 10.635 2.29167 10.635C2.63667 10.635 2.91667 10.355 2.91667 10.01C2.91667 7.26417 4.52583 4.74167 7.01667 3.58333C7.33 3.4375 7.465 3.06583 7.32083 2.75333C7.17417 2.44 6.80417 2.305 6.49 2.45C3.56 3.8125 1.66667 6.78 1.66667 10.01ZM17.7083 10.635C17.3633 10.635 17.0833 10.355 17.0833 10.01C17.0833 7.26417 15.4742 4.74167 12.9833 3.58333C12.6708 3.4375 12.535 3.06583 12.68 2.7525C12.8258 2.44 13.1967 2.30417 13.5108 2.44917C16.44 3.8125 18.3333 6.78 18.3333 10.01C18.3333 10.355 18.0533 10.635 17.7083 10.635ZM9.12833 18.2983C9.415 18.3275 9.705 18.3433 10 18.3433C10.3133 18.3433 10.6225 18.3258 10.9258 18.2933C11.2692 18.255 11.5167 17.9467 11.4792 17.6033C11.4408 17.26 11.13 17.0108 10.7892 17.05C10.2858 17.105 9.76 17.1075 9.25833 17.055C8.91083 17.0242 8.6075 17.2692 8.57167 17.6117C8.53583 17.955 8.785 18.2625 9.12833 18.2983Z" fill="#BFC1C1"/>
</svg>
