<svg width="46" height="46" viewBox="0 0 46 46" fill="none" xmlns="http://www.w3.org/2000/svg">
<rect width="46" height="46" rx="8" fill="#171616"/>
<path fill-rule="evenodd" clip-rule="evenodd" d="M26.6325 13C26.7045 15.6592 24.8496 17.5041 22.9969 17.3884C22.6916 15.2662 24.8494 13 26.6325 13ZM15 23.8121C15 26.9066 17.4015 32.9829 20.3047 33H20.3237C21.0454 33 21.6817 32.7565 22.2441 32.5413L22.249 32.5394C22.6615 32.3809 23.051 32.2316 23.3591 32.2316C23.9669 32.2316 24.3347 32.3918 24.761 32.5777L24.7612 32.5778C25.1826 32.7615 25.6603 32.9697 26.336 32.9697C29.098 32.9697 31 27.7232 31 27.4788C31 27.1053 30.7225 26.9341 30.454 26.7685L30.4525 26.7676L30.4517 26.7671C29.842 26.391 28.5745 25.6091 28.5745 23.5775C28.5745 21.8617 29.6944 20.9954 30.3083 20.5204L30.3085 20.5202L30.7383 20.1878L30.4397 19.7277C29.165 17.7651 27.0448 17.6077 26.3455 17.6077H26.3399C25.4034 17.6077 24.5992 17.9356 23.953 18.1994L23.9399 18.2047C23.6401 18.3264 23.3046 18.4626 23.161 18.4626C22.9177 18.4626 22.4802 18.2978 22.0571 18.1381C21.4521 17.9093 20.7662 17.6506 20.1239 17.6506C18.6985 17.6506 15 18.7573 15 23.8121Z" fill="white"/>
</svg>
