<svg width="24" height="25" viewBox="0 0 24 25" fill="none" xmlns="http://www.w3.org/2000/svg">
<path fill-rule="evenodd" clip-rule="evenodd" d="M7.15385 3.125H16.8462C17.4824 3.125 18 3.65469 18 4.30574V21.143C18 21.3994 17.8645 21.6358 17.646 21.761C17.4275 21.8866 17.1595 21.8812 16.9459 21.7468L12.0014 18.6452L7.05622 21.7695C6.94478 21.8398 6.81878 21.875 6.6923 21.875C6.57625 21.875 6.46015 21.8453 6.35515 21.7853C6.13592 21.6601 6 21.4235 6 21.1666V4.30574C6 3.65469 6.51763 3.125 7.15385 3.125ZM12.3621 17.2092L16.6154 19.8774V4.54187H7.38461V19.8965L11.6363 17.2104C11.8586 17.0701 12.1392 17.0694 12.3621 17.2092Z" fill="#2DBD58"/>
<path d="M17.646 21.761L17.5186 21.5385L17.5182 21.5387L17.646 21.761ZM16.9459 21.7468L17.0823 21.5297L17.0821 21.5296L16.9459 21.7468ZM12.0014 18.6452L12.1376 18.428L12.0009 18.3423L11.8644 18.4285L12.0014 18.6452ZM7.05622 21.7695L7.1931 21.9863L7.19318 21.9862L7.05622 21.7695ZM6.35515 21.7853L6.48235 21.5626L6.48229 21.5626L6.35515 21.7853ZM16.6154 19.8774L16.4791 20.0946L16.8718 20.341V19.8774H16.6154ZM12.3621 17.2092L12.4983 16.992L12.4983 16.992L12.3621 17.2092ZM16.6154 4.54187H16.8718V4.28546H16.6154V4.54187ZM7.38461 4.54187V4.28546H7.1282V4.54187H7.38461ZM7.38461 19.8965H7.1282V20.3618L7.52156 20.1133L7.38461 19.8965ZM11.6363 17.2104L11.4995 16.9936L11.4994 16.9936L11.6363 17.2104ZM16.8462 2.86859H7.15385V3.38141H16.8462V2.86859ZM18.2564 4.30574C18.2564 3.51869 17.6296 2.86859 16.8462 2.86859V3.38141C17.3353 3.38141 17.7436 3.79069 17.7436 4.30574H18.2564ZM18.2564 21.143V4.30574H17.7436V21.143H18.2564ZM17.7734 21.9835C18.0735 21.8116 18.2564 21.4894 18.2564 21.143H17.7436C17.7436 21.3095 17.6556 21.46 17.5186 21.5385L17.7734 21.9835ZM16.8094 21.9639C17.1032 22.1486 17.4728 22.1562 17.7738 21.9833L17.5182 21.5387C17.3821 21.6169 17.2158 21.6137 17.0823 21.5297L16.8094 21.9639ZM11.8651 18.8625L16.8096 21.964L17.0821 21.5296L12.1376 18.428L11.8651 18.8625ZM7.19318 21.9862L12.1383 18.862L11.8644 18.4285L6.91927 21.5527L7.19318 21.9862ZM6.6923 22.1314C6.86657 22.1314 7.04014 22.0828 7.1931 21.9863L6.91935 21.5526C6.84943 21.5968 6.77098 21.6186 6.6923 21.6186V22.1314ZM6.22796 22.0079C6.37226 22.0904 6.53228 22.1314 6.6923 22.1314V21.6186C6.62021 21.6186 6.54805 21.6002 6.48235 21.5626L6.22796 22.0079ZM5.74359 21.1666C5.74359 21.5136 5.9272 21.8362 6.22802 22.0079L6.48229 21.5626C6.34464 21.484 6.25641 21.3334 6.25641 21.1666H5.74359ZM5.74359 4.30574V21.1666H6.25641V4.30574H5.74359ZM7.15385 2.86859C6.37048 2.86859 5.74359 3.51868 5.74359 4.30574H6.25641C6.25641 3.7907 6.66477 3.38141 7.15385 3.38141V2.86859ZM16.7517 19.6602L12.4983 16.992L12.2258 17.4264L16.4791 20.0946L16.7517 19.6602ZM16.359 4.54187V19.8774H16.8718V4.54187H16.359ZM7.38461 4.79828H16.6154V4.28546H7.38461V4.79828ZM7.64102 19.8965V4.54187H7.1282V19.8965H7.64102ZM11.4994 16.9936L7.24766 19.6798L7.52156 20.1133L11.7733 17.4272L11.4994 16.9936ZM12.4983 16.992C12.1917 16.7997 11.8049 16.8008 11.4995 16.9936L11.7732 17.4272C11.9122 17.3395 12.0866 17.3391 12.2259 17.4265L12.4983 16.992Z" fill="#2DBD58"/>
</svg>
