<svg width="24" height="25" viewBox="0 0 24 25" fill="none" xmlns="http://www.w3.org/2000/svg">
<path fill-rule="evenodd" clip-rule="evenodd" d="M18 16.6365C17.24 16.6365 16.56 16.9378 16.04 17.4096L8.91 13.243C8.96 13.012 9 12.7811 9 12.5402C9 12.2992 8.96 12.0683 8.91 11.8373L15.96 7.71084C16.5 8.21285 17.21 8.5241 18 8.5241C19.66 8.5241 21 7.17871 21 5.51205C21 3.84538 19.66 2.5 18 2.5C16.34 2.5 15 3.84538 15 5.51205C15 5.75301 15.04 5.98394 15.09 6.21486L8.04 10.3414C7.5 9.83936 6.79 9.52811 6 9.52811C4.34 9.52811 3 10.8735 3 12.5402C3 14.2068 4.34 15.5522 6 15.5522C6.79 15.5522 7.5 15.241 8.04 14.739L15.16 18.9157C15.11 19.1265 15.08 19.3474 15.08 19.5683C15.08 21.1847 16.39 22.5 18 22.5C19.61 22.5 20.92 21.1847 20.92 19.5683C20.92 17.9518 19.61 16.6365 18 16.6365Z" fill="#2DBD58"/>
</svg>
