<svg width="22" height="22" viewBox="0 0 22 22" fill="none" xmlns="http://www.w3.org/2000/svg">
<path fill-rule="evenodd" clip-rule="evenodd" d="M1 11C1 5.48625 5.48625 1 11 1C16.5138 1 21 5.48625 21 11C21 16.5138 16.5138 21 11 21C5.48625 21 1 16.5138 1 11ZM2.25 11C2.25 15.825 6.175 19.75 11 19.75C15.825 19.75 19.75 15.825 19.75 11C19.75 6.175 15.825 2.25 11 2.25C6.175 2.25 2.25 6.175 2.25 11ZM11.625 5.375V14.125H10.375V5.375H11.625ZM11.625 16.625V15.375H10.375V16.625H11.625Z" fill="white"/>
<path d="M11.625 14.125V14.375H11.875V14.125H11.625ZM11.625 5.375H11.875V5.125H11.625V5.375ZM10.375 14.125H10.125V14.375H10.375V14.125ZM10.375 5.375V5.125H10.125V5.375H10.375ZM11.625 15.375H11.875V15.125H11.625V15.375ZM11.625 16.625V16.875H11.875V16.625H11.625ZM10.375 15.375V15.125H10.125V15.375H10.375ZM10.375 16.625H10.125V16.875H10.375V16.625ZM11 0.75C5.34818 0.75 0.75 5.34818 0.75 11H1.25C1.25 5.62432 5.62432 1.25 11 1.25V0.75ZM21.25 11C21.25 5.34818 16.6518 0.75 11 0.75V1.25C16.3757 1.25 20.75 5.62432 20.75 11H21.25ZM11 21.25C16.6518 21.25 21.25 16.6518 21.25 11H20.75C20.75 16.3757 16.3757 20.75 11 20.75V21.25ZM0.75 11C0.75 16.6518 5.34818 21.25 11 21.25V20.75C5.62432 20.75 1.25 16.3757 1.25 11H0.75ZM11 19.5C6.31307 19.5 2.5 15.6869 2.5 11H2C2 15.9631 6.03693 20 11 20V19.5ZM19.5 11C19.5 15.6869 15.6869 19.5 11 19.5V20C15.9631 20 20 15.9631 20 11H19.5ZM11 2.5C15.6869 2.5 19.5 6.31307 19.5 11H20C20 6.03693 15.9631 2 11 2V2.5ZM2.5 11C2.5 6.31307 6.31307 2.5 11 2.5V2C6.03693 2 2 6.03693 2 11H2.5ZM11.875 14.125V5.375H11.375V14.125H11.875ZM10.375 14.375H11.625V13.875H10.375V14.375ZM10.125 5.375V14.125H10.625V5.375H10.125ZM11.625 5.125H10.375V5.625H11.625V5.125ZM11.375 15.375V16.625H11.875V15.375H11.375ZM10.375 15.625H11.625V15.125H10.375V15.625ZM10.625 16.625V15.375H10.125V16.625H10.625ZM11.625 16.375H10.375V16.875H11.625V16.375Z" fill="white"/>
</svg>
