<svg width="22" height="14" viewBox="0 0 22 14" fill="none" xmlns="http://www.w3.org/2000/svg">
<path fill-rule="evenodd" clip-rule="evenodd" d="M0.692239 0H6.57359V14H0.692239C0.30995 14 0 13.6691 0 13.2609V9.51444C0 9.10624 0.30995 8.77536 0.692239 8.77536C1.60915 8.77536 2.35513 7.979 2.35513 7C2.35513 6.021 1.60915 5.22455 0.692239 5.22455C0.30995 5.22455 0 4.89367 0 4.48547V0.739079C0 0.330876 0.30995 0 0.692239 0ZM22 4.48547C22 4.89367 21.6901 5.22455 21.3078 5.22455C20.3908 5.22455 19.6449 6.021 19.6449 7C19.6449 7.979 20.3908 8.77541 21.3078 8.77541C21.6901 8.77541 22 9.10628 22 9.51448V13.2609C22 13.6691 21.6901 14 21.3078 14H7.95806V0H21.3078C21.6901 0 22 0.330876 22 0.739079V4.48547Z" fill="#BFC1C1"/>
</svg>
