<svg width="20" height="20" viewBox="0 0 20 20" fill="none" xmlns="http://www.w3.org/2000/svg">
<path fill-rule="evenodd" clip-rule="evenodd" d="M15.4545 16.3637H18.6364C18.8876 16.3637 19.0909 16.567 19.0909 16.8182V18.1818C19.0909 19.1846 18.2755 20 17.2727 20H1.81819C0.815411 20 0 19.1846 0 18.1818V7.27292C0 6.27015 0.815453 5.45475 1.81819 5.45475H3.38991L12.3389 0.244894C12.7553 0.002554 13.2417 -0.062729 13.707 0.0615729C14.1744 0.186727 14.565 0.488129 14.8069 0.909826L17.4174 5.46941C18.3516 5.54458 19.0909 6.31975 19.0909 7.27292V8.63653C19.0909 8.88778 18.8876 9.09109 18.6364 9.09109H15.4545C13.4495 9.09109 11.8182 10.7224 11.8182 12.7274C11.8182 14.7324 13.4495 16.3637 15.4545 16.3637ZM16.3611 5.45475L15.3707 3.72484L12.3993 5.45475H16.3611ZM5.19673 5.45475L12.7965 1.03055C13.002 0.910252 13.2422 0.878293 13.4717 0.93957C13.7038 1.0017 13.8974 1.15174 14.0177 1.36169L14.0186 1.36336L6.99123 5.45475H5.19673ZM18.6364 10.0001H15.4545C13.9506 10.0001 12.7273 11.2235 12.7273 12.7274C12.7273 14.2313 13.9506 15.4546 15.4545 15.4546H18.6364C19.3883 15.4546 20 14.8429 20 14.091V11.3638C20 10.6118 19.3883 10.0001 18.6364 10.0001ZM15.4545 13.6364C14.9534 13.6364 14.5455 13.2285 14.5455 12.7274C14.5455 12.2262 14.9534 11.8183 15.4545 11.8183C15.9557 11.8183 16.3636 12.2262 16.3636 12.7274C16.3637 13.2285 15.9557 13.6364 15.4545 13.6364Z" fill="#BFC1C1"/>
</svg>
