<svg width="67" height="19" viewBox="0 0 67 19" fill="none" xmlns="http://www.w3.org/2000/svg">
<path fill-rule="evenodd" clip-rule="evenodd" d="M39.9253 0.0375977H45.0622C46.7242 0.0375977 48.084 0.490855 48.9905 1.24629C49.5948 2.00171 49.897 3.2104 49.5948 4.57018C49.1416 7.89407 47.1774 9.55601 43.7025 9.55601H42.0405C41.5873 9.55601 41.2851 9.85818 41.2851 10.1604L40.6807 13.9375C40.6807 14.2397 40.5297 14.3908 40.2275 14.3908H37.5079C37.2058 14.3908 37.0547 14.2397 37.0547 13.9375L39.1699 0.641941C39.321 0.33977 39.6231 0.0375977 39.9253 0.0375977ZM42.6449 6.83646C44.0046 6.83646 45.3644 6.83646 45.6666 5.02343C45.6666 4.268 45.6666 3.81475 45.3644 3.66366C44.9112 3.05932 44.0046 3.05932 43.0981 3.05932H42.796C42.4938 3.05932 42.3427 3.2104 42.3427 3.36149L41.7384 6.83646H42.6449Z" fill="#139AD6"/>
<path fill-rule="evenodd" clip-rule="evenodd" d="M2.9097 0.0375977H8.04662C9.85965 0.0375977 11.0683 0.490855 11.9749 1.24629C12.5792 2.00171 12.8814 3.2104 12.5792 4.57018C12.1259 7.89407 10.1618 9.55601 6.68684 9.55601H5.0249C4.57164 9.55601 4.26947 9.85818 4.26947 10.1604L3.66512 13.7864C3.51404 14.0886 3.21187 14.3908 2.9097 14.3908H0.49232C0.190148 14.3908 0.0390625 14.2397 0.0390625 13.9375L2.15427 0.641941C2.30535 0.33977 2.60752 0.0375977 2.9097 0.0375977ZM5.62924 6.83646C6.98902 6.83646 8.34879 6.83646 8.65096 5.02343C8.80205 4.268 8.65096 3.81475 8.49987 3.66366C8.04662 3.05932 7.1401 3.05932 6.23359 3.05932H5.93141C5.62924 3.05932 5.47816 3.2104 5.47816 3.36149L4.87381 6.83646H5.62924Z" fill="#263B80"/>
<path fill-rule="evenodd" clip-rule="evenodd" d="M21.1898 4.87248H23.6072C23.7583 4.87248 24.0604 5.17466 24.2115 5.32574L22.8517 13.7866C22.7007 14.0887 22.3985 14.3909 22.0963 14.3909H19.83C19.5279 14.3909 19.3768 14.2398 19.3768 13.9376L19.5279 13.1822C19.5279 13.1822 18.3192 14.542 16.0529 14.542C14.6931 14.542 13.6355 14.2398 12.8801 13.3333C12.1246 12.4268 11.6714 11.067 11.9736 9.55615C12.4268 6.68552 14.8442 4.57031 17.5637 4.57031C18.7724 4.57031 19.83 4.87248 20.4344 5.62791L20.5855 5.93009L20.7365 5.17466C20.7365 5.02357 21.0387 4.87248 21.1898 4.87248ZM17.2616 12.1246C18.7724 12.1246 19.83 11.067 20.1322 9.70723C20.1322 9.10289 19.9811 8.34746 19.5279 7.8942C19.0746 7.59203 18.6213 7.28986 17.8659 7.28986C16.5061 7.28986 15.2974 8.34746 15.1464 9.70723C15.1464 10.4627 15.2974 11.067 15.5996 11.5203C15.9018 11.8224 16.5061 12.1246 17.2616 12.1246Z" fill="#263B80"/>
<path fill-rule="evenodd" clip-rule="evenodd" d="M58.0531 4.87248H60.4705C60.7013 4.87248 60.844 5.04883 60.9658 5.19945C61.0035 5.24599 61.0391 5.29008 61.0748 5.32574L59.715 13.7866C59.5639 14.0887 59.2618 14.3909 58.9596 14.3909H56.6933C56.3911 14.3909 56.24 14.2398 56.24 13.9376L56.3911 13.1822C56.3911 13.1822 55.1824 14.542 52.9162 14.542C51.5564 14.542 50.4988 14.2398 49.7434 13.3333C48.9879 12.4268 48.5347 11.067 48.8368 9.55615C49.2901 6.68552 51.7075 4.57031 54.427 4.57031C55.6357 4.57031 56.6933 4.87248 57.2976 5.62791L57.4487 5.93009L57.5998 5.17466C57.5998 5.02357 57.902 4.87248 58.0531 4.87248ZM54.1248 12.1246C55.6357 12.1246 56.6933 11.067 56.9955 9.70723C57.1466 9.10289 56.9955 8.34746 56.3911 7.8942C55.9379 7.59203 55.4846 7.28986 54.7292 7.28986C53.3694 7.28986 52.1607 8.34746 52.0096 9.70723C52.0096 10.4627 52.1607 11.067 52.4629 11.5203C52.7651 11.8224 53.3694 12.1246 54.1248 12.1246Z" fill="#139AD6"/>
<path d="M36.7508 4.87256H34.1823C33.8802 4.87256 33.7291 5.02364 33.578 5.17473L30.2541 10.3117L28.7432 5.4769C28.5922 5.17473 28.4411 5.02364 27.9878 5.02364H25.5704C25.2683 5.02364 25.1172 5.32582 25.1172 5.62799L27.8367 13.6355L25.2683 17.2616C25.1172 17.5638 25.2683 18.017 25.5704 18.017H27.9878C28.29 18.017 28.4411 17.8659 28.5922 17.7149L36.9019 5.77907C37.3551 5.32582 37.053 4.87256 36.7508 4.87256Z" fill="#263B80"/>
<path d="M63.3418 0.490838L61.2266 14.0886C61.2266 14.3907 61.3776 14.5418 61.6798 14.5418H63.795C64.0972 14.5418 64.3994 14.2397 64.5505 13.9375L66.6657 0.641924C66.6657 0.339752 66.5146 0.188666 66.2124 0.188666H63.795C63.6439 0.0375803 63.4929 0.188666 63.3418 0.490838Z" fill="#139AD6"/>
</svg>
