<svg width="18" height="18" viewBox="0 0 18 18" fill="none" xmlns="http://www.w3.org/2000/svg">
<path fill-rule="evenodd" clip-rule="evenodd" d="M8.99998 0C4.02751 0 0 4.02752 0 9C0 13.9725 4.02751 18 8.99998 18C13.9724 18 18 13.9725 18 9C18 4.02748 13.9725 0 8.99998 0ZM8.99998 16.2C5.03098 16.2 1.79997 12.969 1.79997 9C1.79997 5.03099 5.03098 1.80002 8.99998 1.80002C12.969 1.80002 16.2 5.03099 16.2 9C16.2 12.969 12.969 16.2 8.99998 16.2ZM6.29998 5.40001H8.09999V12.6H6.29998V5.40001ZM9.90001 5.40001H11.7V12.6H9.90001V5.40001Z" fill="#2B3331" fill-opacity="0.6"/>
</svg>
