<svg width="24" height="24" viewBox="0 0 24 24" fill="none" xmlns="http://www.w3.org/2000/svg">
<mask id="path-1-inside-1" fill="white">
<path fill-rule="evenodd" clip-rule="evenodd" d="M10.4483 2C5.78988 2 2 5.78988 2 10.4483C2 15.1067 5.78988 18.8966 10.4483 18.8966C12.5121 18.8966 14.4054 18.1527 15.8742 16.9191L20.7387 21.7835C20.883 21.9279 21.0719 22 21.2611 22C21.4503 22 21.6392 21.9279 21.7835 21.7835C22.0722 21.4951 22.0722 21.0271 21.7835 20.7387L16.9191 15.8742C18.1527 14.4054 18.8966 12.5121 18.8966 10.4483C18.8966 5.78988 15.1066 2 10.4483 2ZM15.4477 15.301C16.667 14.0451 17.4187 12.3329 17.4187 10.4483C17.4187 6.60469 14.2916 3.47785 10.4483 3.47785C6.60469 3.47785 3.47785 6.60469 3.47785 10.4483C3.47785 14.2919 6.60469 17.4187 10.4483 17.4187C12.3328 17.4187 14.045 16.6671 15.3008 15.4478C15.3214 15.4204 15.3442 15.3942 15.3692 15.3692C15.3941 15.3443 15.4203 15.3216 15.4477 15.301Z"/>
</mask>
<path fill-rule="evenodd" clip-rule="evenodd" d="M10.4483 2C5.78988 2 2 5.78988 2 10.4483C2 15.1067 5.78988 18.8966 10.4483 18.8966C12.5121 18.8966 14.4054 18.1527 15.8742 16.9191L20.7387 21.7835C20.883 21.9279 21.0719 22 21.2611 22C21.4503 22 21.6392 21.9279 21.7835 21.7835C22.0722 21.4951 22.0722 21.0271 21.7835 20.7387L16.9191 15.8742C18.1527 14.4054 18.8966 12.5121 18.8966 10.4483C18.8966 5.78988 15.1066 2 10.4483 2ZM15.4477 15.301C16.667 14.0451 17.4187 12.3329 17.4187 10.4483C17.4187 6.60469 14.2916 3.47785 10.4483 3.47785C6.60469 3.47785 3.47785 6.60469 3.47785 10.4483C3.47785 14.2919 6.60469 17.4187 10.4483 17.4187C12.3328 17.4187 14.045 16.6671 15.3008 15.4478C15.3214 15.4204 15.3442 15.3942 15.3692 15.3692C15.3941 15.3443 15.4203 15.3216 15.4477 15.301Z" fill="#2B3331"/>
<path d="M15.8742 16.9191L16.5813 16.212L15.9331 15.5637L15.2311 16.1533L15.8742 16.9191ZM20.7387 21.7835L21.4458 21.0764L21.4458 21.0764L20.7387 21.7835ZM21.7835 21.7835L21.0767 21.0762L21.0764 21.0764L21.7835 21.7835ZM21.7835 20.7387L21.0764 21.4458L21.0767 21.446L21.7835 20.7387ZM16.9191 15.8742L16.1533 15.2311L15.5637 15.9331L16.2119 16.5813L16.9191 15.8742ZM15.4477 15.301L16.0496 16.0995L16.1113 16.053L16.1651 15.9976L15.4477 15.301ZM15.3008 15.4478L15.9974 16.1653L16.0528 16.1114L16.0994 16.0497L15.3008 15.4478ZM15.3692 15.3692L16.076 16.0766L16.0763 16.0763L15.3692 15.3692ZM3 10.4483C3 6.34217 6.34217 3 10.4483 3V1C5.2376 1 1 5.2376 1 10.4483H3ZM10.4483 17.8966C6.34217 17.8966 3 14.5544 3 10.4483H1C1 15.659 5.2376 19.8966 10.4483 19.8966V17.8966ZM15.2311 16.1533C13.9351 17.2418 12.2674 17.8966 10.4483 17.8966V19.8966C12.7567 19.8966 14.8757 19.0636 16.5173 17.6848L15.2311 16.1533ZM15.1671 17.6262L20.0316 22.4906L21.4458 21.0764L16.5813 16.212L15.1671 17.6262ZM20.0316 22.4906C20.3708 22.8298 20.8172 23 21.2611 23V21C21.3266 21 21.3953 21.0259 21.4458 21.0764L20.0316 22.4906ZM21.2611 23C21.705 23 22.1514 22.8298 22.4906 22.4906L21.0764 21.0764C21.1269 21.0259 21.1956 21 21.2611 21V23ZM22.4904 22.4909C23.1699 21.8118 23.1699 20.7103 22.4904 20.0313L21.0767 21.446C20.9744 21.3439 20.9744 21.1783 21.0767 21.0762L22.4904 22.4909ZM22.4906 20.0316L17.6262 15.1671L16.2119 16.5813L21.0764 21.4458L22.4906 20.0316ZM17.8966 10.4483C17.8966 12.2674 17.2418 13.9351 16.1533 15.2311L17.6848 16.5174C19.0636 14.8757 19.8966 12.7567 19.8966 10.4483H17.8966ZM10.4483 3C14.5544 3 17.8966 6.34217 17.8966 10.4483H19.8966C19.8966 5.23759 15.6589 1 10.4483 1V3ZM16.1651 15.9976C17.5577 14.5633 18.4187 12.6041 18.4187 10.4483H16.4187C16.4187 12.0616 15.7763 13.527 14.7302 14.6044L16.1651 15.9976ZM18.4187 10.4483C18.4187 6.05238 14.8439 2.47785 10.4483 2.47785V4.47785C13.7394 4.47785 16.4187 7.15699 16.4187 10.4483H18.4187ZM10.4483 2.47785C6.05241 2.47785 2.47785 6.0524 2.47785 10.4483H4.47785C4.47785 7.15697 7.15697 4.47785 10.4483 4.47785V2.47785ZM2.47785 10.4483C2.47785 14.8442 6.05241 18.4187 10.4483 18.4187V16.4187C7.15697 16.4187 4.47785 13.7396 4.47785 10.4483H2.47785ZM10.4483 18.4187C12.604 18.4187 14.5631 17.5578 15.9974 16.1653L14.6042 14.7303C13.5268 15.7763 12.0615 16.4187 10.4483 16.4187V18.4187ZM14.6624 14.6618C14.6043 14.7198 14.5509 14.7814 14.5022 14.8459L16.0994 16.0497C16.092 16.0595 16.0842 16.0685 16.076 16.0766L14.6624 14.6618ZM14.8457 14.5024C14.7813 14.5509 14.72 14.6042 14.6621 14.6621L16.0763 16.0763C16.0682 16.0844 16.0593 16.0922 16.0496 16.0995L14.8457 14.5024Z" fill="#2B3331" mask="url(#path-1-inside-1)"/>
</svg>
