<svg width="24" height="24" viewBox="0 0 24 24" fill="none" xmlns="http://www.w3.org/2000/svg">
<path fill-rule="evenodd" clip-rule="evenodd" d="M21.75 22H2.25C1.00726 22 0 20.9667 0 19.6923V4.30769C0 3.03309 1.00726 2 2.25 2H8.70007C9.08716 1.99925 9.45959 2.15325 9.73792 2.42931L12.2999 4.94847C12.338 4.98753 12.3721 5.03054 12.4012 5.07692H21.75C22.9927 5.07692 24 6.1102 24 7.38462V19.6923C24 20.9667 22.9926 22 21.75 22ZM2.25 3.53846C1.83582 3.53846 1.5 3.88289 1.5 4.30769V19.6923C1.5 20.1171 1.83582 20.4615 2.25 20.4615H21.75C22.1642 20.4615 22.5 20.1171 22.5 19.6923V7.38462C22.5 6.95981 22.1642 6.61539 21.75 6.61539H12.4012C11.9335 6.61539 11.4924 6.39153 11.2088 6.00992L8.70007 3.53846H2.25ZM15.2184 13.4702C15.3591 13.3773 15.3591 13.1708 15.2184 13.0779L10.1614 9.74055C10.0051 9.63742 9.79688 9.74949 9.79688 9.93672V16.6113C9.79688 16.7986 10.0051 16.9106 10.1614 16.8075L15.2184 13.4702Z" fill="#2B3331"/>
</svg>
