<svg width="46" height="46" viewBox="0 0 46 46" fill="none" xmlns="http://www.w3.org/2000/svg">
<g filter="url(#filter0_b)">
<rect width="46" height="46" rx="8" fill="white"/>
<rect x="0.5" y="0.5" width="45" height="45" rx="7.5" stroke="#2B3331" stroke-opacity="0.1"/>
</g>
<path d="M17.6875 22.9999C17.6875 22.009 17.9605 21.0808 18.4348 20.286V16.9146H15.0634C13.7253 18.6524 13 20.7703 13 22.9999C13 25.2295 13.7253 27.3474 15.0634 29.0853H18.4348V25.7138C17.9605 24.919 17.6875 23.9908 17.6875 22.9999Z" fill="#FBBD00"/>
<path d="M23 28.3126L20.6562 30.6563L23 33.0001C25.2296 33.0001 27.3475 32.2747 29.0854 30.9367V27.5688H25.7175C24.9158 28.0449 23.9836 28.3126 23 28.3126Z" fill="#0F9D58"/>
<path d="M18.4339 25.7139L15.0625 29.0853C15.3274 29.4293 15.6159 29.7588 15.928 30.071C17.8168 31.9597 20.328 32.9999 22.9991 32.9999V28.3124C21.0607 28.3124 19.3617 27.2687 18.4339 25.7139Z" fill="#31AA52"/>
<path d="M33 23C33 22.3916 32.9449 21.7821 32.8363 21.1884L32.7483 20.708H23V25.3955H27.7442C27.2835 26.312 26.5752 27.0596 25.7175 27.5689L29.0853 30.9367C29.4294 30.6718 29.7589 30.3833 30.0711 30.0711C31.9598 28.1823 33 25.6711 33 23Z" fill="#3C79E6"/>
<path d="M26.7565 19.2435L27.1708 19.6578L30.4854 16.3432L30.0711 15.9289C28.1823 14.0402 25.6711 13 23 13L20.6562 15.3438L23 17.6875C24.419 17.6875 25.7531 18.2401 26.7565 19.2435Z" fill="#CF2D48"/>
<path d="M22.9991 17.6875V13C20.328 13 17.8168 14.0402 15.928 15.9289C15.6159 16.2411 15.3274 16.5705 15.0625 16.9146L18.4339 20.2861C19.3618 18.7312 21.0607 17.6875 22.9991 17.6875Z" fill="#EB4132"/>
<defs>
<filter id="filter0_b" x="-2.71828" y="-2.71828" width="51.4366" height="51.4366" filterUnits="userSpaceOnUse" color-interpolation-filters="sRGB">
<feFlood flood-opacity="0" result="BackgroundImageFix"/>
<feGaussianBlur in="BackgroundImage" stdDeviation="1.35914"/>
<feComposite in2="SourceAlpha" operator="in" result="effect1_backgroundBlur"/>
<feBlend mode="normal" in="SourceGraphic" in2="effect1_backgroundBlur" result="shape"/>
</filter>
</defs>
</svg>
