<svg width="18" height="18" viewBox="0 0 18 18" fill="none" xmlns="http://www.w3.org/2000/svg">
<path fill-rule="evenodd" clip-rule="evenodd" d="M2.24251 16.5H8.97012C9.38348 16.5 9.71761 16.8353 9.71761 17.25C9.71761 17.6648 9.38348 18 8.97012 18H2.24251C1.00614 18 0 16.9905 0 15.75V2.25002C0 1.00953 1.00614 0 2.24251 0H8.97012C9.38348 0 9.71761 0.335309 9.71761 0.750054C9.71761 1.1648 9.38348 1.50004 8.97012 1.50004H2.24251C1.82992 1.50004 1.49502 1.83602 1.49502 2.25002V15.75C1.49502 16.164 1.82988 16.5 2.24251 16.5ZM13.2324 3.966L17.7773 8.46601C17.92 8.60778 18 8.79903 18 8.99995C18 9.20094 17.9193 9.39296 17.7773 9.53395L13.2324 14.034C13.0874 14.178 12.8975 14.25 12.7076 14.25C12.5148 14.25 12.3219 14.175 12.1754 14.0265C11.8862 13.7317 11.8884 13.257 12.1829 12.966L15.4308 9.75H6.72757C6.3142 9.75 5.98008 9.41473 5.98008 8.99998C5.98008 8.58524 6.3142 8.25 6.72757 8.25H15.4308L12.1829 5.03401C11.8884 4.74301 11.8854 4.26826 12.1754 3.97352C12.4655 3.67877 12.9394 3.675 13.2324 3.966Z" fill="#2B3331" fill-opacity="0.6"/>
</svg>
