<svg width="4" height="16" viewBox="0 0 4 16" fill="none" xmlns="http://www.w3.org/2000/svg">
<path fill-rule="evenodd" clip-rule="evenodd" d="M3.41421 0.585785C4.19526 1.36683 4.19526 2.63316 3.41421 3.41421C2.63317 4.19526 1.36683 4.19526 0.585785 3.41421C-0.195262 2.63316 -0.195262 1.36683 0.585785 0.585785C1.3668 -0.195262 2.63314 -0.195262 3.41421 0.585785ZM3.41421 6.58582C4.19526 7.36686 4.19526 8.6332 3.41421 9.41424C2.63317 10.1953 1.36683 10.1953 0.585785 9.41424C-0.195262 8.6332 -0.195262 7.36686 0.585785 6.58582C1.3668 5.80477 2.63314 5.80477 3.41421 6.58582ZM3.41421 15.4142C4.19526 14.6332 4.19526 13.3668 3.41421 12.5858C2.63314 11.8047 1.3668 11.8047 0.585785 12.5858C-0.195262 13.3668 -0.195262 14.6332 0.585785 15.4142C1.36683 16.1953 2.63317 16.1953 3.41421 15.4142Z" fill="#2B3331"/>
</svg>
