<svg width="26" height="18" viewBox="0 0 26 18" fill="none" xmlns="http://www.w3.org/2000/svg">
<path fill-rule="evenodd" clip-rule="evenodd" d="M13 0C7.0909 0 2.04456 3.73196 0 9C2.04456 14.268 7.0909 18 13 18C18.915 18 23.9554 14.268 26 9C23.9554 3.73196 18.915 0 13 0ZM13 15C9.73819 15 7.0909 12.3119 7.0909 8.99994C7.0909 5.68794 9.73819 2.99998 13 2.99998C16.2618 2.99998 18.9091 5.688 18.9091 9C18.9091 12.312 16.2618 15 13 15ZM9.45455 9C9.45455 7.01398 11.0441 5.4 13 5.4C14.9559 5.4 16.5455 7.01398 16.5455 9C16.5455 10.986 14.9559 12.6 13 12.6C11.0441 12.6 9.45455 10.986 9.45455 9Z" fill="#2B3331"/>
</svg>
