<svg width="11" height="14" viewBox="0 0 11 14" fill="none" xmlns="http://www.w3.org/2000/svg">
<path fill-rule="evenodd" clip-rule="evenodd" d="M9.16667 5.25H9.625C10.3828 5.25 11 5.83853 11 6.5625V12.6875C11 13.4115 10.3828 14 9.625 14H1.375C0.617228 14 0 13.4115 0 12.6875V6.5625C0 5.83853 0.617228 5.25 1.375 5.25H1.83333V3.5C1.83333 1.5697 3.47778 0 5.5 0C7.52222 0 9.16667 1.5697 9.16667 3.5V5.25ZM5.5 1C4.12119 1 3 2.02509 3 3.2857V5H8V3.2857C8 2.02509 6.87881 1 5.5 1Z" fill="#6C39AC"/>
</svg>
