<svg width="12" height="16" viewBox="0 0 12 16" fill="none" xmlns="http://www.w3.org/2000/svg">
<path fill-rule="evenodd" clip-rule="evenodd" d="M3.44844 1.45455C3.44844 0.97758 3.8145 0.628993 4.28356 0.628993H7.71659C8.1855 0.628993 8.55156 0.97758 8.55156 1.45455V2.35872H9.17012V1.45455C9.17012 0.630835 8.52664 0 7.71659 0H4.28356C3.47351 0 2.82988 0.630835 2.82988 1.45455V2.35872H3.44844V1.45455ZM9.6573 16H2.34286C1.63746 16 1.09018 15.3692 1.09018 14.5848V4.87469H10.9098V14.5848C10.9098 15.3692 10.3625 16 9.6573 16ZM8.28094 6.06189C8.11014 6.06189 7.97166 6.2027 7.97166 6.37638V13.8064C7.97166 13.98 8.11014 14.1209 8.28094 14.1209C8.45174 14.1209 8.59022 13.98 8.59022 13.8064V6.37638C8.59022 6.2027 8.45174 6.06189 8.28094 6.06189ZM5.69072 6.37638C5.69072 6.2027 5.8292 6.06189 6 6.06189C6.1708 6.06189 6.30928 6.2027 6.30928 6.37638V13.8064C6.30928 13.98 6.1708 14.1209 6 14.1209C5.8292 14.1209 5.69072 13.98 5.69072 13.8064V6.37638ZM3.71906 6.06189C3.54826 6.06189 3.40978 6.2027 3.40978 6.37638V13.8064C3.40978 13.98 3.54826 14.1209 3.71906 14.1209C3.88986 14.1209 4.02834 13.98 4.02834 13.8064V6.37638C4.02834 6.2027 3.88986 6.06189 3.71906 6.06189ZM11.2268 4.2457H0.7732C0.346128 4.2457 0 3.89373 0 3.45946C0 3.02518 0.346128 2.67322 0.7732 2.67322H11.2268C11.6539 2.67322 12 3.02518 12 3.45946C12 3.89373 11.6539 4.2457 11.2268 4.2457Z" fill="#E42727"/>
</svg>
